<svg id="图层_1" data-name="图层 1" xmlns="http://www.w3.org/2000/svg" xmlns:xlink="http://www.w3.org/1999/xlink" viewBox="0 0 750 750"><defs><style>.cls-1{fill:url(#新建渐变色板_1);}.cls-2{fill:url(#未命名的渐变_82);}.cls-3{fill:url(#未命名的渐变_82-2);}.cls-4{fill:url(#未命名的渐变_82-3);}.cls-5{fill:url(#未命名的渐变_61);}.cls-6,.cls-7{stroke:#aad0ff;stroke-linecap:round;stroke-miterlimit:10;stroke-width:1.74px;}.cls-6{fill:url(#未命名的渐变_61-2);}.cls-7{fill:none;}.cls-8{fill:#aad0ff;}.cls-12,.cls-9{fill:#63a6f9;}.cls-10{fill:#92c1fc;}.cls-11{fill:#f7f8f8;}.cls-12{font-size:18px;font-family:MicrosoftYaHei, Microsoft YaHei;}</style><linearGradient id="新建渐变色板_1" x1="398.03" y1="311.09" x2="398.03" y2="654.32" gradientUnits="userSpaceOnUse"><stop offset="0" stop-color="#92c1fc" stop-opacity="0.2"/><stop offset="0.45" stop-color="#187fc4" stop-opacity="0"/></linearGradient><linearGradient id="未命名的渐变_82" x1="300.46" y1="95.68" x2="300.46" y2="177.61" gradientUnits="userSpaceOnUse"><stop offset="0.03" stop-color="#92c1fc" stop-opacity="0.4"/><stop offset="0.25" stop-color="#92c1fc" stop-opacity="0.2"/><stop offset="0.8" stop-color="#187fc4" stop-opacity="0"/></linearGradient><linearGradient id="未命名的渐变_82-2" x1="168.23" y1="249.64" x2="168.23" y2="315.78" xlink:href="#未命名的渐变_82"/><linearGradient id="未命名的渐变_82-3" x1="605.07" y1="146.11" x2="605.07" y2="210.91" xlink:href="#未命名的渐变_82"/><linearGradient id="未命名的渐变_61" x1="640.97" y1="332.76" x2="590.41" y2="384.02" gradientTransform="matrix(1, 0.04, -0.04, 1, -51.63, 10.2)" gradientUnits="userSpaceOnUse"><stop offset="0" stop-color="#63a6f9"/><stop offset="1" stop-color="#92c1fc"/></linearGradient><linearGradient id="未命名的渐变_61-2" x1="899.46" y1="134.21" x2="859.48" y2="194.13" gradientTransform="translate(-271.84 30.37) rotate(13.15)" xlink:href="#未命名的渐变_61"/></defs><title>缺省</title><ellipse class="cls-1" cx="398.03" cy="482.71" rx="289.36" ry="171.62"/><path class="cls-2" d="M219.28,133.89c4.54-7.69,14.58-13.5,36-9.37,0,0,34.21-61,87.84-5.55,0,0,32-7.64,40.16,16.53a21.05,21.05,0,0,1-12.51,26.32c-27.51,10.56-90.59,29-142.86,1.06C217.47,157.29,213.25,144.12,219.28,133.89Z"/><path class="cls-3" d="M102.69,280.49c3.67-6.21,11.77-10.9,29.1-7.57,0,0,27.62-49.26,70.91-4.48,0,0,25.8-6.16,32.43,13.35A17,17,0,0,1,225,303c-22.21,8.52-73.13,23.37-115.33.85C101.23,299.38,97.82,288.75,102.69,280.49Z"/><path class="cls-4" d="M537.05,176.33c3.8-6.08,12.21-10.67,30.2-7.41,0,0,28.66-48.27,73.59-4.39,0,0,26.77-6,33.65,13.08,3,8.44-1.67,17.62-10.49,20.81-23,8.36-75.9,22.91-119.69.84C535.53,194.84,532,184.43,537.05,176.33Z"/><path class="cls-5" d="M472.48,435.89s17.4-55.67,66.91-80.67l12.14,8.3-5.92-11.94s35.45-19.74,53.49-4.47c10.14,8.57-1.78,37.71-33.64,75.13L554.63,419l6.74,9.75s-20.63,38.78-57.58,41.16l-17.23-15.21Z"/><path class="cls-6" d="M486.56,454.72c-1.06,1,6.51-10.18,19.2-25.92,20.23-25.08,54.12-65.58,93.34-81.69"/><path class="cls-7" d="M544.1,386.54s19.37-6.24,32.46,7.58"/><path class="cls-7" d="M545.61,442.32c-17.89-20.36-38.4-15.06-38.4-15.06"/><path class="cls-7" d="M516.17,416.61s17.65-24.23,18.14-52.39"/><path class="cls-8" d="M628.23,402.7s-29.17,86.64-120.08,78.72l-15.72-26.87S616.08,416.84,628.23,402.7Z"/><path class="cls-9" d="M492.43,454.55s27.4-29.21,79.48-37.3c0,0,40.42-3.78,56.32-14.55,0,0-22.54,23.9-61.66,28.28,0,0,3.37,3.29,27.68-1.18,0,0-37.75,33.77-91.16,35.07Z"/><path class="cls-9" d="M484.37,168.78h-9.81V158.26a3,3,0,0,0-6.05,0v10.52H458.7a2.21,2.21,0,1,0,0,4.42h9.81v10.52a3,3,0,0,0,6.05,0V173.2h9.81a2.21,2.21,0,1,0,0-4.42Z"/><path class="cls-9" d="M231,262.91a5.68,5.68,0,1,1-5.67,5.67,5.68,5.68,0,0,1,5.67-5.67m0-7a12.68,12.68,0,1,0,12.67,12.67A12.67,12.67,0,0,0,231,255.91Z"/><path class="cls-9" d="M596.51,315a5.68,5.68,0,1,1-5.67,5.68,5.68,5.68,0,0,1,5.67-5.68m0-7a12.68,12.68,0,1,0,12.67,12.68A12.68,12.68,0,0,0,596.51,308Z"/><rect class="cls-9" x="264.6" y="210.91" width="242.03" height="299.17" rx="12"/><rect class="cls-10" x="269.6" y="210.91" width="242.03" height="299.17" rx="12"/><rect class="cls-11" x="281.6" y="225.74" width="218.03" height="269.51" rx="12"/><rect class="cls-9" x="342.68" y="197.4" width="94.3" height="36.16" rx="12"/><rect class="cls-10" x="347.68" y="197.4" width="94.3" height="36.16" rx="12"/><rect class="cls-9" x="309.96" y="274.63" width="57.53" height="6.63" rx="3.31"/><rect class="cls-9" x="310.98" y="299.05" width="159.26" height="5.97" rx="2.99"/><rect class="cls-9" x="309.96" y="354.63" width="57.53" height="6.63" rx="3.31"/><rect class="cls-9" x="310.98" y="379.05" width="159.26" height="5.97" rx="2.99"/><text class="cls-12" transform="translate(338.73 550.77)">暂无数据呦～</text></svg>