<svg id="图层_1" data-name="图层 1" xmlns="http://www.w3.org/2000/svg" xmlns:xlink="http://www.w3.org/1999/xlink" viewBox="0 0 750 750"><defs><style>.cls-1{fill:url(#未命名的渐变_61);}.cls-2,.cls-3{stroke:#aad0ff;stroke-linecap:round;stroke-width:1.74px;}.cls-2,.cls-3,.cls-8{stroke-miterlimit:10;}.cls-2{fill:url(#未命名的渐变_61-2);}.cls-3,.cls-8{fill:none;}.cls-4{fill:#aad0ff;}.cls-13,.cls-5{fill:#63a6f9;}.cls-6{fill:#92c1fc;}.cls-7{fill:#f7f8f8;}.cls-8{stroke:#f7f8f8;stroke-width:8px;}.cls-9{fill:url(#新建渐变色板_1);}.cls-10{fill:url(#未命名的渐变_82);}.cls-11{fill:url(#未命名的渐变_82-2);}.cls-12{fill:url(#未命名的渐变_82-3);}.cls-13{font-size:18px;font-family:MicrosoftYaHei, Microsoft YaHei;}</style><linearGradient id="未命名的渐变_61" x1="553.23" y1="331.36" x2="502.67" y2="382.62" gradientTransform="matrix(1, 0.04, -0.04, 1, 9.74, -18.98)" gradientUnits="userSpaceOnUse"><stop offset="0" stop-color="#63a6f9"/><stop offset="1" stop-color="#92c1fc"/></linearGradient><linearGradient id="未命名的渐变_61-2" x1="535.94" y1="322.64" x2="495.97" y2="382.55" gradientTransform="translate(98.77 -104.44) rotate(13.15)" xlink:href="#未命名的渐变_61"/><linearGradient id="新建渐变色板_1" x1="399.06" y1="386.92" x2="399.06" y2="730.15" gradientUnits="userSpaceOnUse"><stop offset="0" stop-color="#92c1fc" stop-opacity="0.2"/><stop offset="0.45" stop-color="#187fc4" stop-opacity="0"/></linearGradient><linearGradient id="未命名的渐变_82" x1="301.49" y1="171.5" x2="301.49" y2="253.44" gradientUnits="userSpaceOnUse"><stop offset="0.03" stop-color="#92c1fc" stop-opacity="0.4"/><stop offset="0.25" stop-color="#92c1fc" stop-opacity="0.2"/><stop offset="0.8" stop-color="#187fc4" stop-opacity="0"/></linearGradient><linearGradient id="未命名的渐变_82-2" x1="169.26" y1="325.47" x2="169.26" y2="391.61" xlink:href="#未命名的渐变_82"/><linearGradient id="未命名的渐变_82-3" x1="606.1" y1="221.94" x2="606.1" y2="286.74" xlink:href="#未命名的渐变_82"/></defs><title>缺省</title><path class="cls-1" d="M446.23,401.85s17.41-55.67,66.92-80.67l12.13,8.3-5.92-11.94s35.45-19.74,53.5-4.47c10.14,8.57-1.78,37.71-33.64,75.12L528.38,385l6.74,9.75s-20.63,38.78-57.57,41.16l-17.24-15.21Z"/><path class="cls-2" d="M460.31,420.68c-1.05,1.05,6.51-10.18,19.2-25.92,20.23-25.08,54.13-65.58,93.35-81.69"/><path class="cls-3" d="M517.85,352.5s19.37-6.24,32.46,7.58"/><path class="cls-3" d="M519.36,408.27c-17.89-20.35-38.4-15-38.4-15"/><path class="cls-3" d="M489.92,382.56s17.66-24.22,18.15-52.38"/><path class="cls-4" d="M602,368.66s-29.17,86.64-120.08,78.71l-15.73-26.86S589.84,382.8,602,368.66Z"/><path class="cls-5" d="M466.18,420.51s27.41-29.21,79.49-37.3c0,0,40.41-3.78,56.32-14.55,0,0-22.55,23.9-61.67,28.28,0,0,3.37,3.28,27.68-1.18,0,0-37.74,33.77-91.16,35.07Z"/><path class="cls-5" d="M476,480.42H314c-13.18-6.85-16.84-12.69-14.73-24.81q8.14-46.69,16.66-93.33c2.87-15.6,13.08-24.48,28.72-25.77a18.23,18.23,0,0,0,2.2-.43c-.77-38.23,23.41-54.37,47.15-55.34a45.79,45.79,0,0,1,29.45,9.31c15.49,11.47,20,27.83,19.52,46,19.89,2.72,28.2,10.09,31.55,28.13,3.28,17.66,6.27,35.37,9.4,53.06q3.3,18.66,6.66,37.33c2.24,12.41-1.61,19.76-13,24.74A9.57,9.57,0,0,0,476,480.42ZM426.91,336.36c1.09-15.3-2.57-27.92-16.32-35.75-12.59-7.17-24.63-5.26-35.94,3-9.08,6.63-13.86,21.19-11,32.75ZM371.17,364.5a12.2,12.2,0,0,0-11.89-12.25A12.48,12.48,0,0,0,347,364.16c-.13,6.29,5.53,12.12,11.94,12.29S371.09,370.89,371.17,364.5ZM431,376.45c6.2.06,12.11-5.91,12-12.14s-5.68-11.78-11.76-11.91C425,352.26,419.07,358,419,364.29S424.63,376.38,431,376.45Z"/><path class="cls-6" d="M484.63,480.42h-162c-13.17-6.85-16.83-12.69-14.72-24.81q8.14-46.69,16.66-93.33c2.87-15.6,13.08-24.48,28.71-25.77a18.4,18.4,0,0,0,2.21-.43c-.78-38.23,23.41-54.37,47.15-55.34a45.75,45.75,0,0,1,29.44,9.31c15.49,11.47,20,27.83,19.53,46,19.88,2.72,28.2,10.09,31.55,28.13,3.28,17.66,6.27,35.37,9.4,53.06q3.3,18.66,6.65,37.33c2.25,12.41-1.6,19.76-13,24.74A10.11,10.11,0,0,0,484.63,480.42ZM435.55,336.36c1.09-15.3-2.58-27.92-16.33-35.75-12.58-7.17-24.63-5.26-35.93,3-9.09,6.63-13.86,21.19-11,32.75ZM379.8,364.5a12.19,12.19,0,0,0-11.89-12.25,12.47,12.47,0,0,0-12.31,11.91c-.13,6.29,5.53,12.12,11.94,12.29S379.73,370.89,379.8,364.5Zm59.82,11.95c6.2.06,12.11-5.91,12-12.14S446,352.53,439.89,352.4c-6.3-.14-12.19,5.56-12.29,11.89S433.27,376.38,439.62,376.45Z"/><circle class="cls-7" cx="367.7" cy="364.35" r="12.1"/><circle class="cls-7" cx="439.63" cy="364.42" r="12.1"/><path class="cls-8" d="M367.7,365.87s36.28,58.63,71.93-1.45"/><ellipse class="cls-9" cx="399.06" cy="558.53" rx="289.36" ry="171.62"/><path class="cls-10" d="M220.31,209.72c4.54-7.69,14.58-13.5,36-9.37,0,0,34.21-61,87.84-5.55,0,0,32-7.64,40.16,16.53a21.05,21.05,0,0,1-12.51,26.32c-27.51,10.56-90.6,29-142.86,1.06C218.5,233.11,214.28,220,220.31,209.72Z"/><path class="cls-11" d="M103.72,356.32c3.67-6.21,11.77-10.9,29.1-7.57,0,0,27.62-49.26,70.91-4.48,0,0,25.8-6.16,32.43,13.35a17,17,0,0,1-10.11,21.25c-22.21,8.52-73.13,23.37-115.33.85C102.26,375.21,98.85,364.58,103.72,356.32Z"/><path class="cls-12" d="M538.08,252.16c3.8-6.08,12.21-10.67,30.2-7.41,0,0,28.66-48.27,73.59-4.39,0,0,26.77-6,33.65,13.08,3,8.44-1.67,17.62-10.49,20.81-23,8.36-75.9,22.91-119.69.84C536.56,270.67,533,260.26,538.08,252.16Z"/><text class="cls-13" transform="translate(355.6 546.92)">还没有商城呢～</text><path class="cls-5" d="M505.78,256.56H496V246a3,3,0,0,0-6.06,0v10.52h-9.8a2.21,2.21,0,1,0,0,4.42h9.8V271.5a3,3,0,0,0,6.06,0V261h9.8a2.21,2.21,0,1,0,0-4.42Z"/><path class="cls-5" d="M252.4,350.69a5.68,5.68,0,1,1-5.67,5.67,5.69,5.69,0,0,1,5.67-5.67m0-7a12.68,12.68,0,1,0,12.68,12.67,12.67,12.67,0,0,0-12.68-12.67Z"/><path class="cls-5" d="M617.92,402.79a5.68,5.68,0,1,1-5.67,5.67,5.68,5.68,0,0,1,5.67-5.67m0-7a12.68,12.68,0,1,0,12.67,12.67,12.67,12.67,0,0,0-12.67-12.67Z"/></svg>