<svg id="图层_1" data-name="图层 1" xmlns="http://www.w3.org/2000/svg" xmlns:xlink="http://www.w3.org/1999/xlink" viewBox="0 0 750 750"><defs><style>.cls-1{fill:url(#新建渐变色板_1);}.cls-2{fill:url(#未命名的渐变_82);}.cls-3{fill:url(#未命名的渐变_82-2);}.cls-4{fill:url(#未命名的渐变_82-3);}.cls-5{fill:url(#未命名的渐变_61);}.cls-6,.cls-7{stroke:#aad0ff;stroke-linecap:round;stroke-miterlimit:10;stroke-width:1.74px;}.cls-6{fill:url(#未命名的渐变_61-2);}.cls-7{fill:none;}.cls-8{fill:#aad0ff;}.cls-15,.cls-9{fill:#63a6f9;}.cls-10{fill:#80b7fc;}.cls-11{fill:#8bbdfb;}.cls-12{fill:#92c1fc;}.cls-13{fill:#fff;}.cls-14{fill:#f7f8f8;}.cls-15{font-size:18px;font-family:MicrosoftYaHei, Microsoft YaHei;}</style><linearGradient id="新建渐变色板_1" x1="408.91" y1="299.96" x2="408.91" y2="643.2" gradientUnits="userSpaceOnUse"><stop offset="0" stop-color="#92c1fc" stop-opacity="0.2"/><stop offset="0.45" stop-color="#187fc4" stop-opacity="0"/></linearGradient><linearGradient id="未命名的渐变_82" x1="311.35" y1="84.55" x2="311.35" y2="166.48" gradientUnits="userSpaceOnUse"><stop offset="0.03" stop-color="#92c1fc" stop-opacity="0.4"/><stop offset="0.25" stop-color="#92c1fc" stop-opacity="0.2"/><stop offset="0.8" stop-color="#187fc4" stop-opacity="0"/></linearGradient><linearGradient id="未命名的渐变_82-2" x1="179.12" y1="238.51" x2="179.12" y2="304.65" xlink:href="#未命名的渐变_82"/><linearGradient id="未命名的渐变_82-3" x1="615.95" y1="134.98" x2="615.95" y2="199.78" xlink:href="#未命名的渐变_82"/><linearGradient id="未命名的渐变_61" x1="575.94" y1="274.86" x2="525.38" y2="326.12" gradientTransform="matrix(1, 0.04, -0.04, 1, -22.45, 71.57)" gradientUnits="userSpaceOnUse"><stop offset="0" stop-color="#63a6f9"/><stop offset="1" stop-color="#92c1fc"/></linearGradient><linearGradient id="未命名的渐变_61-2" x1="651.44" y1="-187.45" x2="611.46" y2="-127.54" gradientTransform="translate(-137.03 400.98) rotate(13.15)" xlink:href="#未命名的渐变_61"/></defs><title>缺省</title><ellipse class="cls-1" cx="408.91" cy="471.58" rx="289.36" ry="171.62"/><path class="cls-2" d="M230.17,122.76c4.53-7.69,14.57-13.5,36-9.37,0,0,34.21-61,87.83-5.55,0,0,32-7.64,40.16,16.53a21,21,0,0,1-12.51,26.32c-27.51,10.56-90.59,29-142.86,1.06C228.35,146.16,224.13,133,230.17,122.76Z"/><path class="cls-3" d="M113.58,269.36c3.66-6.21,11.77-10.9,29.09-7.57,0,0,27.62-49.26,70.92-4.48,0,0,25.8-6.16,32.42,13.35a17,17,0,0,1-10.1,21.25c-22.21,8.52-73.14,23.38-115.33.85C112.11,288.25,108.7,277.62,113.58,269.36Z"/><path class="cls-4" d="M547.93,165.2c3.81-6.08,12.22-10.67,30.2-7.41,0,0,28.66-48.27,73.59-4.39,0,0,26.78-6,33.65,13.08,3,8.44-1.67,17.62-10.48,20.82-23,8.35-75.9,22.9-119.69.83C546.42,183.71,542.88,173.3,547.93,165.2Z"/><path class="cls-5" d="M439,436.84s17.41-55.67,66.92-80.67L518,364.48l-5.91-12s35.44-19.74,53.49-4.47c10.14,8.57-1.78,37.71-33.64,75.13L521.11,420l6.75,9.75s-20.63,38.78-57.58,41.16l-17.23-15.21Z"/><path class="cls-6" d="M453.05,455.67c-1.06,1.05,6.5-10.18,19.2-25.92,20.22-25.08,54.12-65.58,93.34-81.69"/><path class="cls-7" d="M510.59,387.49s19.37-6.24,32.46,7.58"/><path class="cls-7" d="M512.1,443.27c-17.89-20.35-38.4-15.06-38.4-15.06"/><path class="cls-7" d="M482.65,417.56s17.66-24.23,18.15-52.39"/><path class="cls-8" d="M594.72,403.66s-29.17,86.63-120.08,78.71L458.92,455.5S582.57,417.79,594.72,403.66Z"/><path class="cls-9" d="M458.92,455.5s27.4-29.21,79.48-37.3c0,0,40.42-3.78,56.32-14.54,0,0-22.54,23.89-61.66,28.27,0,0,3.37,3.29,27.68-1.17,0,0-37.75,33.76-91.17,35.06Z"/><path class="cls-9" d="M495.25,157.65h-9.8V147.13a3,3,0,0,0-6.06,0v10.52h-9.8a2.21,2.21,0,1,0,0,4.42h9.8v10.52a3,3,0,0,0,6.06,0V162.07h9.8a2.21,2.21,0,1,0,0-4.42Z"/><path class="cls-9" d="M241.88,251.78a5.68,5.68,0,1,1-5.68,5.68,5.69,5.69,0,0,1,5.68-5.68m0-7a12.68,12.68,0,1,0,12.67,12.68,12.68,12.68,0,0,0-12.67-12.68Z"/><path class="cls-9" d="M607.39,303.88a5.68,5.68,0,1,1-5.67,5.68,5.68,5.68,0,0,1,5.67-5.68m0-7a12.68,12.68,0,1,0,12.67,12.68,12.68,12.68,0,0,0-12.67-12.68Z"/><path class="cls-10" d="M421.64,291.69c-5.84,1-10.11-3.05-9.53-8.89.92-9.17-3.57-12.81-12.24-9.93-7.2,2.4-10.93-.33-10.85-7.92.11-9.49-4.69-12.65-13.49-9.54-2.47.87-6.49.75-8.28-.73-2-1.67-2.42-5.37-3.28-8.26s-.44-7.1-2.22-8.29c-2.25-1.5-6.46-1.4-9.29-.43-7.2,2.47-11.9-.29-11.32-7.72.33-4.18-.44-7.35-4.68-9-4.52-1.71-5.89,2-7.77,4.6q-35.85,49.47-71.63,99l-3.44,4.76.31.22-10.21,13.62-.12.12c-6.12,8.46-12.33,16.86-18.29,25.43-4.61,6.64-4,10.35,2.59,15.31,7.49,5.64,15.21,11,22.75,16.56,2.67,2,5,2,7.68.05,6.62-4.83,11-4.92,16.86-.71,6.13,4.38,7.63,9.61,5.77,17.19-.47,1.91.29,5.25,1.71,6.33,10.69,8.15,21.55,16.1,32.65,23.7C320.93,451,325,450,329,444.51c5.71-7.65,11.3-15.39,16.9-23.13l.29.22,17.28-23.05-.67-.5q35.25-48.68,70.36-97.46c1.19-1.66,1.94-5.52,1-6.41-2-2-5.18-3-8-3.76C424.86,290.07,423.2,291.42,421.64,291.69Z"/><path class="cls-11" d="M471,365.26c-5.64-1.81-7.57-7.37-4.35-12.28,5.05-7.72,2.75-13-6.27-14.46-7.49-1.21-9.54-5.34-6-12,4.48-8.37,1.68-13.39-7.56-14.7-2.6-.37-6.1-2.32-7-4.47-1-2.4.32-5.88.9-8.84s2.89-6.5,1.86-8.37c-1.31-2.37-5.08-4.24-8-4.68-7.52-1.13-10.42-5.76-6.47-12.08,2.22-3.55,3-6.72,0-10.1-3.22-3.61-6.15-.94-9,.49Q364.47,291,309.85,318.43l-5.25,2.63c.06.11.11.23.17.34l-15.35,7.36a1,1,0,0,0-.16.06c-9.33,4.67-18.72,9.25-28,14.1-7.16,3.76-8.32,7.34-4.78,14.77,4,8.47,8.42,16.77,12.53,25.2,1.45,3,3.46,4.09,6.79,3.59,8.1-1.22,12,.71,15.28,7.16,3.41,6.72,2.33,12.06-2.83,17.92-1.3,1.47-2.16,4.78-1.4,6.39,5.71,12.18,11.67,24.25,18,36.11,3.2,6,7.26,6.92,13.39,4,8.6-4.16,17.14-8.43,25.68-12.71l.15.32,26-12.46-.36-.74q53.76-26.91,107.43-53.94c1.82-.92,4.27-4,3.86-5.22-.89-2.67-3.21-5-5.39-7C474.63,365.32,472.53,365.75,471,365.26Z"/><path class="cls-9" d="M294.84,497.88V318.34H303q85.37,0,170.72,0c4.47,0,9.8-1.49,11.56,5C487,329.51,484,333,479,336c-8.89,5.42-8.16,13,.53,19.14,3.41,2.4,7,7.09,7.1,10.87.12,3-5,6-7.55,9.3s-6.42,6.84-6.66,10.47c-.22,3.24,2.94,7.88,5.95,10,10.72,7.43,11.08,15.44.24,23.1-8.66,6.12-8.69,12.57-.09,18.76,10.37,7.46,9.93,15.51-1.21,22-7.09,4.12-8.16,12.27-2.25,18.07,1.57,1.54,4.46,2.32,5.13,4.07,1.47,3.87,2.88,8.27,2.33,12.18-.26,1.77-5.24,4.08-8.09,4.09-58.14.24-116.29.18-174.43.17C298.55,498.2,297.1,498,294.84,497.88Zm66.22-99.37c-7,0-12.15-.05-17.26,0-4.65.06-6.9,2.43-6.07,7.1.69,3.9-1.49,9.62,6.07,9.34,7.1-.26,14.21-.06,21.61-.06v10c-7.1,0-13.75.25-20.37-.09-5.19-.26-7.47,2.07-7.21,6.88.24,4.58.87,9,7.4,8.72s13.33-.06,20.07-.06c.43,1.27.8,2.16,1,3.09a14.41,14.41,0,0,1,.5,2.91c.58,14.08.57,14.09,14.91,13.27a35.55,35.55,0,0,0,3.61-.69c0-4,.22-7.92-.06-11.79-.36-4.88,1-7.39,6.51-7.1a120.59,120.59,0,0,0,15.54-.58c6.59-.49,4.72-5.64,5-9.55.33-4.24-1.89-5.69-5.83-5.63-6.86.1-13.73,0-20.4,0-2.31-6.64-1.33-10,5.72-9.47,4.68.33,9.41-.14,14.1.11,5.74.31,7.29-2.59,7.08-7.74s-1.19-8.87-7.44-8.6c-4.3.18-8.6,0-14.52,0,2.27-3.7,3.39-5.81,4.78-7.74,4.92-6.82,9.74-13.72,14.95-20.32,4.45-5.63,1.32-9-3-12.17s-8.22-4-11.75,1.5c-5.18,8.14-10.82,16-16.16,24-2.45,3.69-4.64,3.9-7.37.26-5.94-7.91-12.51-15.39-17.9-23.65-4-6.1-7.13-4.86-11.87-1.34-4.92,3.65-7.4,6.72-2.52,12.49C347.08,379.79,353.29,388.44,361.06,398.51Z"/><path class="cls-9" d="M273.21,319.09V497.44a29,29,0,0,1-4.7.73c-14.09,0-28.18,0-42.27-.19-9.52-.14-14-3.82-14.26-13.32-.48-18.78-.37-37.59.1-56.37.07-2.49,3.22-6.08,5.76-7.11,10.11-4.1,14.8-10.09,14.74-20.61-.05-10.11-3.72-15-14.61-18.51-4.46-1.45-6.28-4.1-6.23-8.73.15-13.1-.14-26.21.12-39.31.23-11.5,3.91-15.25,15.2-15.47,14.59-.27,29.18-.12,43.77-.12A11.23,11.23,0,0,1,273.21,319.09Z"/><path class="cls-12" d="M485.22,418.81c10.84-7.66,10.48-15.67-.24-23.09-3-2.09-6.17-6.72-6-10,.25-3.64,4.08-7.15,6.66-10.48s7.67-6.31,7.56-9.3c-.15-3.78-3.7-8.47-7.11-10.87-8.69-6.13-9.42-13.72-.53-19.14,5-3,7.95-6.52,6.3-12.62-1.76-6.52-7.09-5-11.56-5q-85.36-.09-170.72,0h-8.19v.11h-24c-14.59,0-29.18-.16-43.77.12-11.29.21-15,4-15.2,15.46-.26,13.1,0,26.21-.12,39.31-.05,4.63,1.77,7.28,6.23,8.74,10.89,3.54,14.56,8.39,14.62,18.5.05,10.52-4.64,16.51-14.74,20.61-2.55,1-5.7,4.62-5.76,7.11-.48,18.78-.59,37.59-.1,56.37.24,9.5,4.73,13.19,14.25,13.32,14.09.2,28.18.19,42.28.19h30.46l1,0c58.14,0,116.29.07,174.43-.17,2.85,0,7.84-2.32,8.09-4.09.56-3.9-.86-8.31-2.33-12.18-.66-1.75-3.56-2.53-5.13-4.07-5.91-5.8-4.84-13.95,2.25-18.07,11.14-6.47,11.58-14.52,1.21-22C476.53,431.39,476.57,424.93,485.22,418.81Z"/><path class="cls-13" d="M377.84,404.06c-7-9.12-12.65-16.94-18.85-24.27-4.42-5.22-2.17-8,2.28-11.3,4.29-3.19,7.15-4.31,10.75,1.21,4.88,7.48,10.82,14.25,16.2,21.41,2.47,3.29,4.45,3.11,6.67-.24,4.83-7.27,9.94-14.36,14.63-21.72,3.19-5,6.68-4.29,10.64-1.36s6.75,5.92,2.72,11c-4.71,6-9.08,12.22-13.53,18.39-1.26,1.75-2.28,3.66-4.33,7,5.35,0,9.25.14,13.14,0,5.66-.24,6.55,3.24,6.73,7.79s-1.21,7.28-6.4,7c-4.24-.23-8.53.2-12.76-.1-6.39-.44-7.27,2.56-5.18,8.57,6,0,12.25.07,18.46,0,3.57-.05,5.58,1.26,5.28,5.09-.28,3.54,1.41,8.21-4.55,8.65a112.26,112.26,0,0,1-14.07.53c-5-.27-6.22,2-5.89,6.41.25,3.51.05,7.05.05,10.68a30,30,0,0,1-3.27.62c-13,.75-13,.74-13.49-12a13.15,13.15,0,0,0-.46-2.64c-.21-.84-.54-1.65-.92-2.8-6.11,0-12.15-.21-18.17.06s-6.48-3.75-6.71-7.9c-.23-4.35,1.83-6.46,6.53-6.22,6,.31,12,.07,18.45.07v-9c-6.7,0-13.15-.19-19.57,0-6.84.26-4.87-4.93-5.5-8.45-.75-4.23,1.29-6.38,5.51-6.43C366.85,404,371.48,404.06,377.84,404.06Z"/><rect class="cls-14" x="282.21" y="354" width="13.79" height="117.57" rx="6.9"/><text class="cls-15" transform="translate(337.56 583.35)">没有优惠券呢～</text></svg>