<svg id="图层_1" data-name="图层 1" xmlns="http://www.w3.org/2000/svg" xmlns:xlink="http://www.w3.org/1999/xlink" viewBox="0 0 750 750"><defs><style>.cls-1{fill:url(#新建渐变色板_1);}.cls-2{fill:url(#未命名的渐变_82);}.cls-3{fill:url(#未命名的渐变_82-2);}.cls-4{fill:url(#未命名的渐变_82-3);}.cls-5{fill:url(#未命名的渐变_61);}.cls-6,.cls-7{stroke:#aad0ff;stroke-linecap:round;stroke-miterlimit:10;stroke-width:1.74px;}.cls-6{fill:url(#未命名的渐变_61-2);}.cls-7{fill:none;}.cls-8{fill:#aad0ff;}.cls-13,.cls-9{fill:#63a6f9;}.cls-10{fill:#fff;}.cls-11{fill:#92c1fc;}.cls-12{fill:#f7f8f8;}.cls-13{font-size:18px;font-family:MicrosoftYaHei, Microsoft YaHei;}</style><linearGradient id="新建渐变色板_1" x1="379.11" y1="317.01" x2="379.11" y2="660.25" gradientUnits="userSpaceOnUse"><stop offset="0" stop-color="#92c1fc" stop-opacity="0.2"/><stop offset="0.45" stop-color="#187fc4" stop-opacity="0"/></linearGradient><linearGradient id="未命名的渐变_82" x1="281.54" y1="101.6" x2="281.54" y2="183.53" gradientUnits="userSpaceOnUse"><stop offset="0.03" stop-color="#92c1fc" stop-opacity="0.4"/><stop offset="0.25" stop-color="#92c1fc" stop-opacity="0.2"/><stop offset="0.8" stop-color="#187fc4" stop-opacity="0"/></linearGradient><linearGradient id="未命名的渐变_82-2" x1="149.31" y1="255.56" x2="149.31" y2="321.71" xlink:href="#未命名的渐变_82"/><linearGradient id="未命名的渐变_82-3" x1="586.15" y1="152.03" x2="586.15" y2="216.84" xlink:href="#未命名的渐变_82"/><linearGradient id="未命名的渐变_61" x1="569.9" y1="242.74" x2="519.34" y2="294" gradientTransform="matrix(1, 0.04, -0.04, 1, -21.85, 41.19)" gradientUnits="userSpaceOnUse"><stop offset="0" stop-color="#63a6f9"/><stop offset="1" stop-color="#92c1fc"/></linearGradient><linearGradient id="未命名的渐变_61-2" x1="653.31" y1="-72.37" x2="613.33" y2="-12.46" gradientTransform="translate(-116.83 225.77) rotate(13.15)" xlink:href="#未命名的渐变_61"/></defs><title>缺省</title><ellipse class="cls-1" cx="379.11" cy="488.63" rx="289.36" ry="171.62"/><path class="cls-2" d="M200.36,139.82c4.54-7.7,14.58-13.5,36-9.37,0,0,34.21-61,87.84-5.55,0,0,31.95-7.64,40.16,16.53a21.05,21.05,0,0,1-12.51,26.32c-27.52,10.56-90.6,28.95-142.86,1.06C198.55,163.21,194.33,150.05,200.36,139.82Z"/><path class="cls-3" d="M83.77,286.41c3.67-6.21,11.77-10.89,29.1-7.56,0,0,27.62-49.27,70.91-4.48,0,0,25.8-6.17,32.42,13.35A17,17,0,0,1,206.1,309c-22.21,8.53-73.14,23.38-115.33.86C82.31,305.3,78.9,294.68,83.77,286.41Z"/><path class="cls-4" d="M518.13,182.26c3.8-6.08,12.21-10.68,30.2-7.41,0,0,28.66-48.27,73.59-4.39,0,0,26.77-6,33.65,13.07,3,8.44-1.67,17.63-10.49,20.82-23.05,8.35-75.9,22.91-119.69.84C516.61,200.77,513.07,190.35,518.13,182.26Z"/><path class="cls-5" d="M434.8,374.13s17.4-55.67,66.91-80.68l12.14,8.31-5.92-11.95s35.45-19.73,53.5-4.47c10.13,8.57-1.79,37.71-33.65,75.13L517,357.25l6.74,9.75s-20.63,38.78-57.58,41.16L448.88,393Z"/><path class="cls-6" d="M448.88,393c-1.06,1,6.51-10.19,19.2-25.93,20.23-25.07,54.13-65.57,93.35-81.69"/><path class="cls-7" d="M506.42,324.77s19.37-6.24,32.46,7.58"/><path class="cls-7" d="M507.93,380.55c-17.89-20.35-38.4-15.06-38.4-15.06"/><path class="cls-7" d="M478.49,354.84s17.65-24.23,18.14-52.39"/><path class="cls-8" d="M590.55,340.94s-29.16,86.63-120.08,78.71l-15.72-26.87S578.4,355.07,590.55,340.94Z"/><path class="cls-9" d="M454.75,392.78s27.4-29.2,79.48-37.3c0,0,40.42-3.78,56.32-14.54,0,0-22.54,23.89-61.66,28.27,0,0,3.37,3.29,27.68-1.17,0,0-37.75,33.77-91.16,35.06Z"/><path class="cls-9" d="M465.45,174.71h-9.81V164.19a3,3,0,0,0-6.05,0v10.52h-9.81a2.21,2.21,0,1,0,0,4.42h9.81v10.52a3,3,0,0,0,6.05,0V179.13h9.81a2.21,2.21,0,1,0,0-4.42Z"/><path class="cls-9" d="M212.07,268.84a5.67,5.67,0,1,1-5.67,5.67,5.67,5.67,0,0,1,5.67-5.67m0-7a12.67,12.67,0,1,0,12.67,12.67,12.67,12.67,0,0,0-12.67-12.67Z"/><path class="cls-9" d="M577.59,320.94a5.68,5.68,0,1,1-5.67,5.67,5.68,5.68,0,0,1,5.67-5.67m0-7a12.68,12.68,0,1,0,12.67,12.67,12.67,12.67,0,0,0-12.67-12.67Z"/><path class="cls-10" d="M349.49,357.08c1.46-2.28,2.47-3.73,3.36-5.25,5.89-10.06,11.73-20.15,17.64-30.19a14,14,0,0,1,3-3.95c2.59-2,5.45-2.49,8.18-.08s2.89,5.44,1.07,8.54q-7.34,12.5-14.7,25c-.82,1.39-1.55,2.85-2.75,5.06h15c4.06,0,7.41,1,7.79,5.8.32,3.95-2.46,6.38-7.7,6.48-8,.15-16,0-24.39,0v7.68c7.22,0,14.48,0,21.74,0,2,0,4.49-.37,5.82.65,2,1.51,4.37,4.22,4.19,6.21s-3.25,4.87-5.28,5.06c-6.93.68-14,.34-21,.39h-5.95c0,5.23.08,9.85,0,14.46-.12,5.3-2.28,8-6.16,8.11-4.16.09-6.38-2.7-6.45-8.25-.06-4.49,0-9,0-14.33h-18c-2.5,0-5,.07-7.5,0-4.9-.2-7.57-2.45-7.22-6.29.38-4.27,3.17-6,7.2-6,6.67,0,13.33,0,20,0h5.2v-7.68c-7,0-13.79,0-20.59,0a56.91,56.91,0,0,1-6-.21c-3.66-.38-5.88-2.41-5.81-6.19s2.56-5.73,6.17-5.83c5.64-.15,11.28,0,17.9,0l-15.46-26.4c-.84-1.44-1.78-2.83-2.52-4.31-1.63-3.28-1.2-6.15,2-8.25,3.45-2.25,6.5-1.33,8.68,1.79,2.38,3.4,4.34,7.1,6.46,10.68C338.6,338.57,343.81,347.43,349.49,357.08Z"/><path class="cls-9" d="M357.24,254.55c-8.29,0-16.61-.46-24.87.11-12.17.85-21.08-4.39-27.45-14a221.07,221.07,0,0,1-12.42-22.21c-3.9-7.73-2.77-15.47,2.3-22.2,4.85-6.45,12.36-6.86,19.24-5.19,8.17,2,16.45,4.6,23.82,8.56,14.49,7.79,27.76,7.39,41.17-2.23,9.33-6.7,20.11-7.83,31.12-5.51,13.16,2.77,17,9.42,14.15,21.24-3.36,14.15-10.74,27.48-23,36.51-4,2.92-9.68,4.37-14.72,4.74C376.85,255.07,367,254.55,357.24,254.55Z"/><path class="cls-9" d="M483.27,389c-6.31-30.55-15.42-60.14-33.16-86.32-10-14.72-22.15-27.11-39.77-32.23a84.16,84.16,0,0,0-21.32-3c-18.5-.41-37,.38-55.51-.26-28.88-1-49.45,12.45-64.93,35.52-18.75,27.91-27.7,59.51-34.46,91.92-.8,3.84-1.85,7.62-2.76,11.43l1,10.93c3.48,8.16,6.51,16.71,14.72,21.58,2.17,1.29,4.44,2.42,6.73,3.5a41.2,41.2,0,0,0,17.46,3.9H448.9A39.31,39.31,0,0,0,472,438.83,33.85,33.85,0,0,0,485.85,416C487.23,407.32,485.1,397.86,483.27,389Z"/><path class="cls-11" d="M362.24,254.55c-8.29,0-16.61-.46-24.87.11-12.17.85-21.08-4.39-27.45-14a221.07,221.07,0,0,1-12.42-22.21c-3.9-7.73-2.77-15.47,2.3-22.2,4.85-6.45,12.36-6.86,19.24-5.19,8.17,2,16.45,4.6,23.82,8.56,14.49,7.79,27.76,7.39,41.17-2.23,9.33-6.7,20.11-7.83,31.12-5.51,13.16,2.77,17,9.42,14.15,21.24-3.36,14.15-10.74,27.48-23,36.51-4,2.92-9.68,4.37-14.72,4.74C381.85,255.07,372,254.55,362.24,254.55Z"/><path class="cls-11" d="M488.27,389c-6.31-30.55-15.42-60.14-33.16-86.32-10-14.72-22.15-27.11-39.77-32.23a84.16,84.16,0,0,0-21.32-3c-18.5-.41-37,.38-55.51-.26-28.88-1-49.45,12.45-64.93,35.52-18.75,27.91-27.7,59.51-34.46,91.92-.8,3.84-1.85,7.62-2.76,11.43l1,10.93c3.48,8.16,6.51,16.71,14.72,21.58,2.17,1.29,4.44,2.42,6.73,3.5a41.2,41.2,0,0,0,17.46,3.9H453.9A39.31,39.31,0,0,0,477,438.83,33.85,33.85,0,0,0,490.85,416C492.23,407.32,490.1,397.86,488.27,389Z"/><path class="cls-12" d="M397.87,316.29,380.11,349a5.35,5.35,0,0,0,4.7,7.9h6.52a5.36,5.36,0,0,1,5.35,5.36h0a5.36,5.36,0,0,1-5.35,5.35h-13.8a5.36,5.36,0,0,0-5.35,5.35v4.19a5.35,5.35,0,0,0,5.35,5.35h13.8a5.36,5.36,0,0,1,5.35,5.36v.06a5.36,5.36,0,0,1-5.35,5.36h-13.8a5.35,5.35,0,0,0-5.35,5.35v10.71a5.36,5.36,0,0,1-5.35,5.35h-2.68a5.35,5.35,0,0,1-5.35-5.35V398.63a5.35,5.35,0,0,0-5.36-5.35H338.9a5.36,5.36,0,0,1-5.36-5.36v-.06a5.36,5.36,0,0,1,5.36-5.36h14.54a5.35,5.35,0,0,0,5.36-5.35V373a5.36,5.36,0,0,0-5.36-5.35H338.9a5.36,5.36,0,0,1-5.36-5.35h0a5.36,5.36,0,0,1,5.36-5.36h7a5.35,5.35,0,0,0,4.72-7.88L333,316.27a5.35,5.35,0,0,1,4.72-7.88h3a5.34,5.34,0,0,1,4.82,3L362.3,346.2c1,2.1,2.15,4.78,3.43,8H366a77.56,77.56,0,0,1,3.57-8.37l16.79-34.47a5.34,5.34,0,0,1,4.81-3h2A5.35,5.35,0,0,1,397.87,316.29Z"/><text class="cls-13" transform="translate(331.02 529.46)">一分钱都没有呢～</text></svg>