<svg id="图层_1" data-name="图层 1" xmlns="http://www.w3.org/2000/svg" xmlns:xlink="http://www.w3.org/1999/xlink" viewBox="0 0 750 750"><defs><style>.cls-1{fill:url(#新建渐变色板_1);}.cls-2{fill:url(#未命名的渐变_82);}.cls-3{fill:url(#未命名的渐变_82-2);}.cls-4{fill:url(#未命名的渐变_82-3);}.cls-5{fill:url(#未命名的渐变_61);}.cls-6,.cls-7{stroke:#aad0ff;stroke-linecap:round;stroke-miterlimit:10;stroke-width:1.4px;}.cls-6{fill:url(#未命名的渐变_61-2);}.cls-7{fill:none;}.cls-8{fill:#aad0ff;}.cls-11,.cls-9{fill:#63a6f9;}.cls-10{fill:#92c1fc;}.cls-11{font-size:18px;font-family:MicrosoftYaHei, Microsoft YaHei;}</style><linearGradient id="新建渐变色板_1" x1="393.92" y1="345.16" x2="393.92" y2="688.4" gradientUnits="userSpaceOnUse"><stop offset="0" stop-color="#92c1fc" stop-opacity="0.2"/><stop offset="0.45" stop-color="#187fc4" stop-opacity="0"/></linearGradient><linearGradient id="未命名的渐变_82" x1="296.36" y1="129.75" x2="296.36" y2="211.68" gradientUnits="userSpaceOnUse"><stop offset="0.03" stop-color="#92c1fc" stop-opacity="0.4"/><stop offset="0.25" stop-color="#92c1fc" stop-opacity="0.2"/><stop offset="0.8" stop-color="#187fc4" stop-opacity="0"/></linearGradient><linearGradient id="未命名的渐变_82-2" x1="164.13" y1="283.71" x2="164.13" y2="349.85" xlink:href="#未命名的渐变_82"/><linearGradient id="未命名的渐变_82-3" x1="600.96" y1="180.18" x2="600.96" y2="244.98" xlink:href="#未命名的渐变_82"/><linearGradient id="未命名的渐变_61" x1="558.07" y1="314.12" x2="517.4" y2="355.36" gradientTransform="matrix(1, 0.04, -0.04, 1, -21.25, 10.8)" gradientUnits="userSpaceOnUse"><stop offset="0" stop-color="#63a6f9"/><stop offset="1" stop-color="#92c1fc"/></linearGradient><linearGradient id="未命名的渐变_61-2" x1="669.58" y1="145.78" x2="637.42" y2="193.98" gradientTransform="translate(-96.64 50.57) rotate(13.15)" xlink:href="#未命名的渐变_61"/></defs><title>缺省</title><ellipse class="cls-1" cx="393.92" cy="516.78" rx="289.36" ry="171.62"/><path class="cls-2" d="M215.17,168c4.54-7.69,14.58-13.5,36.05-9.37,0,0,34.21-61,87.83-5.55,0,0,32-7.64,40.16,16.53a21,21,0,0,1-12.51,26.32c-27.51,10.56-90.59,29-142.86,1.06C213.36,191.36,209.14,178.19,215.17,168Z"/><path class="cls-3" d="M98.59,314.56c3.66-6.21,11.76-10.9,29.09-7.56,0,0,27.62-49.27,70.92-4.48,0,0,25.79-6.17,32.42,13.34a17,17,0,0,1-10.11,21.25c-22.21,8.52-73.13,23.38-115.33.86C97.12,333.45,93.71,322.82,98.59,314.56Z"/><path class="cls-4" d="M532.94,210.41c3.8-6.09,12.22-10.68,30.2-7.42,0,0,28.66-48.26,73.59-4.38,0,0,26.77-6.05,33.65,13.07,3,8.44-1.67,17.62-10.49,20.82-23,8.35-75.9,22.9-119.68.84C531.42,228.91,527.89,218.5,532.94,210.41Z"/><path class="cls-5" d="M440.94,401.33s14-44.79,53.84-64.9l9.76,6.68-4.76-9.61s28.52-15.88,43-3.6c8.15,6.9-1.44,30.34-27.07,60.44L507,387.75l5.42,7.85s-16.6,31.2-46.32,33.11l-13.87-12.23Z"/><path class="cls-6" d="M452.27,416.48c-.85.84,5.24-8.2,15.45-20.86,16.27-20.17,43.55-52.75,75.1-65.72"/><path class="cls-7" d="M498.57,361.62s15.58-5,26.11,6.1"/><path class="cls-7" d="M499.78,406.5c-14.39-16.38-30.89-12.11-30.89-12.11"/><path class="cls-7" d="M476.09,385.81s14.21-19.49,14.6-42.14"/><path class="cls-8" d="M566.25,374.63s-23.46,69.7-96.6,63.32L457,416.34S556.48,386,566.25,374.63Z"/><path class="cls-9" d="M457,416.34s22.05-23.5,64-30c0,0,32.52-3,45.31-11.7,0,0-18.14,19.22-49.61,22.75,0,0,2.72,2.64,22.27-.95,0,0-30.37,27.17-73.34,28.21Z"/><path class="cls-9" d="M480.26,202.85h-9.81V192.34a3,3,0,0,0-6.05,0v10.51h-9.8a2.22,2.22,0,1,0,0,4.43h9.8v10.51a3,3,0,0,0,6.05,0V207.28h9.81a2.22,2.22,0,1,0,0-4.43Z"/><path class="cls-9" d="M226.88,297a5.67,5.67,0,1,1-5.67,5.67,5.68,5.68,0,0,1,5.67-5.67m0-7a12.67,12.67,0,1,0,12.68,12.67A12.67,12.67,0,0,0,226.88,290Z"/><path class="cls-9" d="M592.4,349.09a5.67,5.67,0,1,1-5.67,5.67,5.67,5.67,0,0,1,5.67-5.67m0-7a12.67,12.67,0,1,0,12.67,12.67,12.67,12.67,0,0,0-12.67-12.67Z"/><path class="cls-9" d="M226.89,317c12.47-15.15,28.2-26.24,45.31-35.43,34.73-18.66,71.84-24.82,110.73-19.27,39.38,5.62,72.84,23.43,101.13,51.18,4.61,4.51,4.88,10.26.95,14.19-3.65,3.63-9,3.12-13.71-1.53C448.5,303.46,421.64,288,390,282c-55-10.43-103.54,3-144.85,41.24-.73.68-1.42,1.4-2.15,2.08-6.32,5.95-12,5.43-16.53-1.49Z"/><path class="cls-9" d="M358.2,312.62c30,.83,60,12.14,84.85,36.34,2.76,2.7,5.3,6,3.32,9.63-1.38,2.55-4.63,5.44-7.23,5.63-2.95.21-6.69-1.77-9.07-3.92-12.4-11.26-26.27-20.07-42.33-24.68-39.21-11.27-75-4.78-106.61,21.81-1.79,1.5-3.4,3.22-5.26,4.61-4.53,3.38-9.85,3-13-.82s-2.86-8.91,1.64-12.39c9.71-7.5,19.32-15.37,29.91-21.45C312.65,316.93,332.84,312.78,358.2,312.62Z"/><path class="cls-9" d="M447.36,457.46c-19.32,0-35.3-15.84-35.13-34.77S428.4,388,447.14,388.12c18.95.11,34.79,15.88,34.82,34.66A34.91,34.91,0,0,1,447.36,457.46Zm.55-24.59a2.2,2.2,0,0,0,2.19-2.09c.46-9.36,1-18.43,1.09-27.52a4.55,4.55,0,0,0-3.35-3.64,4.12,4.12,0,0,0-4.6,3.35c.09,9.23.67,18.46,1.14,27.81a2.21,2.21,0,0,0,2.2,2.09Zm-.28,3.9a3.58,3.58,0,0,0-3,.65c-.18.16-.64.47-.81.6a5.37,5.37,0,0,0-1.64,4.53,6,6,0,0,0,4.41,4.27c3,.6,5.77-2,5.51-4.37-.3-2.74-.74-3.85-2.84-5.15A6.32,6.32,0,0,0,447.63,436.77Z"/><path class="cls-9" d="M411.87,389.8a1.7,1.7,0,0,1,.23,1c-.41,6-5.3,9.77-10.05,8.64a12.36,12.36,0,0,1-5.68-2.86c-19.87-19.64-56.82-20.68-78.44-.67a12.76,12.76,0,0,1-3.85,2.58c-4.69,1.89-8.75.69-11.11-3.37-2.13-3.66-1.24-7,1.73-9.93,27-26.53,76.91-26.75,103.81-.35A22.33,22.33,0,0,1,411.87,389.8Z"/><path class="cls-9" d="M377.14,437.71c0,10.77-9.24,19.78-20.32,19.74-10.85-.05-20.23-9.32-20.23-20A20.63,20.63,0,0,1,357,417.12,20.35,20.35,0,0,1,377.14,437.71Z"/><path class="cls-10" d="M230.89,316.9c12.47-15.15,28.2-26.25,45.31-35.44,34.73-18.65,71.84-24.81,110.73-19.26,39.38,5.61,72.84,23.42,101.13,51.17,4.61,4.52,4.88,10.27.95,14.19-3.65,3.64-9,3.12-13.71-1.53-22.8-22.64-49.66-38.11-81.29-44.11-55-10.43-103.54,3-144.85,41.24-.73.68-1.42,1.4-2.15,2.09-6.32,5.94-12,5.42-16.53-1.49Z"/><path class="cls-10" d="M362.2,312.54c30,.84,60,12.15,84.85,36.35,2.76,2.69,5.3,6,3.32,9.63-1.38,2.55-4.63,5.44-7.23,5.63-2.95.21-6.69-1.77-9.07-3.93-12.4-11.25-26.27-20.07-42.33-24.68-39.21-11.26-75-4.77-106.61,21.82-1.79,1.5-3.4,3.21-5.26,4.6-4.53,3.38-9.85,3-13-.81s-2.86-8.92,1.64-12.39c9.71-7.51,19.32-15.38,29.91-21.45C316.65,316.85,336.84,312.71,362.2,312.54Z"/><path class="cls-10" d="M451.36,457.38c-19.32,0-35.3-15.83-35.13-34.76S432.4,387.93,451.14,388c18.95.12,34.79,15.89,34.82,34.67A34.89,34.89,0,0,1,451.36,457.38Zm.55-24.58a2.21,2.21,0,0,0,2.19-2.1c.46-9.35,1-18.43,1.09-27.51a4.56,4.56,0,0,0-3.35-3.65,4.13,4.13,0,0,0-4.6,3.35c.09,9.23.67,18.46,1.14,27.82a2.21,2.21,0,0,0,2.2,2.09Zm-.28,3.9a3.55,3.55,0,0,0-3,.65c-.18.15-.64.47-.81.6a5.35,5.35,0,0,0-1.64,4.53,6,6,0,0,0,4.41,4.26c3,.61,5.77-2,5.51-4.37-.3-2.73-.74-3.84-2.84-5.15A6.34,6.34,0,0,0,451.63,436.7Z"/><path class="cls-10" d="M415.87,389.73a1.65,1.65,0,0,1,.23,1c-.41,6-5.3,9.78-10.05,8.64a12.36,12.36,0,0,1-5.68-2.86c-19.87-19.64-56.82-20.67-78.44-.66a13,13,0,0,1-3.85,2.58c-4.69,1.89-8.75.69-11.11-3.37-2.13-3.66-1.24-7,1.73-9.93,27-26.53,76.91-26.75,103.81-.35A22.1,22.1,0,0,1,415.87,389.73Z"/><path class="cls-10" d="M381.14,437.63c0,10.78-9.24,19.79-20.32,19.74-10.85-.05-20.23-9.31-20.23-20A20.62,20.62,0,0,1,361,417.05,20.34,20.34,0,0,1,381.14,437.63Z"/><text class="cls-11" transform="translate(309.95 529.46)">网络被外星人抓走了～</text></svg>