<svg id="图层_1" data-name="图层 1" xmlns="http://www.w3.org/2000/svg" xmlns:xlink="http://www.w3.org/1999/xlink" viewBox="0 0 750 750"><defs><style>.cls-1{fill:url(#新建渐变色板_1);}.cls-2{fill:url(#未命名的渐变_82);}.cls-3{fill:url(#未命名的渐变_82-2);}.cls-4{fill:url(#未命名的渐变_82-3);}.cls-5{fill:url(#未命名的渐变_61);}.cls-6,.cls-7{stroke:#aad0ff;stroke-width:1.74px;}.cls-13,.cls-6,.cls-7{stroke-linecap:round;stroke-miterlimit:10;}.cls-6{fill:url(#未命名的渐变_61-2);}.cls-7{fill:none;}.cls-8{fill:#aad0ff;}.cls-14,.cls-9{fill:#63a6f9;}.cls-10,.cls-13{fill:#e6f3ff;}.cls-11{fill:#f7f8f8;}.cls-12{fill:#92c1fc;}.cls-13{stroke:#f7f8f8;stroke-width:16px;}.cls-14{font-size:18px;font-family:MicrosoftYaHei, Microsoft YaHei;}</style><linearGradient id="新建渐变色板_1" x1="398.03" y1="311.09" x2="398.03" y2="654.32" gradientUnits="userSpaceOnUse"><stop offset="0" stop-color="#92c1fc" stop-opacity="0.2"/><stop offset="0.45" stop-color="#187fc4" stop-opacity="0"/></linearGradient><linearGradient id="未命名的渐变_82" x1="300.46" y1="95.68" x2="300.46" y2="177.61" gradientUnits="userSpaceOnUse"><stop offset="0.03" stop-color="#92c1fc" stop-opacity="0.4"/><stop offset="0.25" stop-color="#92c1fc" stop-opacity="0.2"/><stop offset="0.8" stop-color="#187fc4" stop-opacity="0"/></linearGradient><linearGradient id="未命名的渐变_82-2" x1="168.23" y1="249.64" x2="168.23" y2="315.78" xlink:href="#未命名的渐变_82"/><linearGradient id="未命名的渐变_82-3" x1="605.07" y1="146.11" x2="605.07" y2="210.91" xlink:href="#未命名的渐变_82"/><linearGradient id="未命名的渐变_61" x1="571.4" y1="163.07" x2="520.84" y2="214.33" gradientTransform="matrix(1, 0.04, -0.04, 1, -52.83, 70.97)" gradientUnits="userSpaceOnUse"><stop offset="0" stop-color="#63a6f9"/><stop offset="1" stop-color="#92c1fc"/></linearGradient><linearGradient id="未命名的渐变_61-2" x1="771.35" y1="-310.23" x2="731.37" y2="-250.32" gradientTransform="translate(-312.24 380.78) rotate(13.15)" xlink:href="#未命名的渐变_61"/></defs><title>缺省</title><ellipse class="cls-1" cx="398.03" cy="482.71" rx="289.36" ry="171.62"/><path class="cls-2" d="M219.28,133.89c4.54-7.69,14.58-13.5,36-9.37,0,0,34.21-61,87.84-5.55,0,0,32-7.64,40.16,16.53a21.05,21.05,0,0,1-12.51,26.32c-27.51,10.56-90.59,29-142.86,1.06C217.47,157.29,213.25,144.12,219.28,133.89Z"/><path class="cls-3" d="M102.69,280.49c3.67-6.21,11.77-10.9,29.1-7.57,0,0,27.62-49.26,70.91-4.48,0,0,25.8-6.16,32.43,13.35A17,17,0,0,1,225,303c-22.21,8.52-73.13,23.37-115.33.85C101.23,299.38,97.82,288.75,102.69,280.49Z"/><path class="cls-4" d="M537.05,176.33c3.8-6.08,12.21-10.67,30.2-7.41,0,0,28.66-48.27,73.59-4.39,0,0,26.77-6,33.65,13.08,3,8.44-1.67,17.62-10.49,20.81-23,8.36-75.9,22.91-119.69.84C535.53,194.84,532,184.43,537.05,176.33Z"/><path class="cls-5" d="M408.46,324.36s17.4-55.67,66.91-80.67L487.5,252l-5.91-11.94s35.44-19.74,53.49-4.47c10.14,8.57-1.78,37.71-33.64,75.13l-10.83-3.22,6.74,9.75S476.72,356,439.77,358.4l-17.23-15.21Z"/><path class="cls-6" d="M422.54,343.19c-1.06,1.05,6.51-10.18,19.2-25.92,20.23-25.08,54.12-65.58,93.34-81.69"/><path class="cls-7" d="M480.08,275s19.37-6.24,32.46,7.58"/><path class="cls-7" d="M481.59,330.79c-17.89-20.36-38.4-15.06-38.4-15.06"/><path class="cls-7" d="M452.15,305.08s17.65-24.23,18.14-52.39"/><path class="cls-8" d="M564.21,291.17S535,377.81,444.13,369.89L428.41,343S552.06,305.31,564.21,291.17Z"/><path class="cls-9" d="M428.41,343s27.4-29.21,79.48-37.3c0,0,40.42-3.78,56.32-14.55,0,0-22.54,23.9-61.66,28.28,0,0,3.37,3.29,27.68-1.17,0,0-37.75,33.76-91.16,35.06Z"/><path class="cls-9" d="M484.37,168.78h-9.81V158.26a3,3,0,0,0-6.05,0v10.52H458.7a2.21,2.21,0,1,0,0,4.42h9.81v10.52a3,3,0,0,0,6.05,0V173.2h9.81a2.21,2.21,0,1,0,0-4.42Z"/><path class="cls-9" d="M231,262.91a5.68,5.68,0,1,1-5.67,5.67,5.68,5.68,0,0,1,5.67-5.67m0-7a12.68,12.68,0,1,0,12.67,12.67A12.67,12.67,0,0,0,231,255.91Z"/><path class="cls-9" d="M596.51,315a5.68,5.68,0,1,1-5.67,5.68,5.68,5.68,0,0,1,5.67-5.68m0-7a12.68,12.68,0,1,0,12.67,12.68A12.68,12.68,0,0,0,596.51,308Z"/><circle class="cls-10" cx="371.63" cy="304.79" r="86.66" transform="translate(-106.67 352.05) rotate(-45)"/><path class="cls-9" d="M371.63,226.13A78.66,78.66,0,1,1,293,304.79a78.75,78.75,0,0,1,78.66-78.66m0-16a94.66,94.66,0,1,0,94.66,94.66,94.66,94.66,0,0,0-94.66-94.66Z"/><path class="cls-11" d="M490.07,434.26a5.09,5.09,0,0,1-3.63-1.48l-55.05-55.06a5.17,5.17,0,0,1,0-7.26l.61-.61a5.17,5.17,0,0,1,7.25,0l55.05,55.05a5.17,5.17,0,0,1,0,7.26l-.6.61A5.09,5.09,0,0,1,490.07,434.26Z"/><path class="cls-9" d="M435.62,361.5a12,12,0,0,0-8.48,3.5l-.61.61a12,12,0,0,0,0,17l55.05,55.05a12,12,0,0,0,17,0l.61-.61a12,12,0,0,0,0-17L444.11,365a12,12,0,0,0-8.49-3.5Z"/><circle class="cls-10" cx="376.63" cy="303.79" r="86.66"/><path class="cls-12" d="M376.63,225.13A78.66,78.66,0,1,1,298,303.79a78.75,78.75,0,0,1,78.66-78.66m0-16a94.66,94.66,0,1,0,94.66,94.66,94.66,94.66,0,0,0-94.66-94.66Z"/><path class="cls-11" d="M495.07,434.26a5.1,5.1,0,0,1-3.63-1.49l-55.06-55a5.19,5.19,0,0,1,0-7.26l.61-.6a5.17,5.17,0,0,1,7.26,0l55.05,55.05a5.12,5.12,0,0,1,0,7.26l-.6.6A5.1,5.1,0,0,1,495.07,434.26Z"/><path class="cls-12" d="M440.62,361.5a12,12,0,0,0-8.48,3.5l-.61.61a12,12,0,0,0,0,17l55.05,55.05a12,12,0,0,0,17,0l.61-.61a12,12,0,0,0,0-17L449.11,365a12,12,0,0,0-8.49-3.5Z"/><path class="cls-13" d="M345.75,253.12s-25.63,16.88-24.08,48.2"/><text class="cls-14" transform="translate(367.82 550.76)">搜索不到呢～</text></svg>