<svg id="图层_1" data-name="图层 1" xmlns="http://www.w3.org/2000/svg" xmlns:xlink="http://www.w3.org/1999/xlink" viewBox="0 0 750 750"><defs><style>.cls-1{fill:url(#新建渐变色板_1);}.cls-2{fill:url(#未命名的渐变_82);}.cls-3{fill:url(#未命名的渐变_82-2);}.cls-4{fill:url(#未命名的渐变_82-3);}.cls-5{fill:url(#未命名的渐变_61);}.cls-6,.cls-7{stroke:#aad0ff;stroke-linecap:round;stroke-miterlimit:10;stroke-width:1.74px;}.cls-6{fill:url(#未命名的渐变_61-2);}.cls-7{fill:none;}.cls-8{fill:#aad0ff;}.cls-11,.cls-9{fill:#63a6f9;}.cls-10{fill:#92c1fc;}.cls-11{font-size:18px;font-family:MicrosoftYaHei, Microsoft YaHei;}</style><linearGradient id="新建渐变色板_1" x1="379.11" y1="311.09" x2="379.11" y2="654.32" gradientUnits="userSpaceOnUse"><stop offset="0" stop-color="#92c1fc" stop-opacity="0.2"/><stop offset="0.45" stop-color="#187fc4" stop-opacity="0"/></linearGradient><linearGradient id="未命名的渐变_82" x1="281.54" y1="95.68" x2="281.54" y2="177.61" gradientUnits="userSpaceOnUse"><stop offset="0.03" stop-color="#92c1fc" stop-opacity="0.4"/><stop offset="0.25" stop-color="#92c1fc" stop-opacity="0.2"/><stop offset="0.8" stop-color="#187fc4" stop-opacity="0"/></linearGradient><linearGradient id="未命名的渐变_82-2" x1="149.31" y1="249.64" x2="149.31" y2="315.78" xlink:href="#未命名的渐变_82"/><linearGradient id="未命名的渐变_82-3" x1="586.15" y1="146.11" x2="586.15" y2="210.91" xlink:href="#未命名的渐变_82"/><linearGradient id="未命名的渐变_61" x1="583.98" y1="292.79" x2="533.42" y2="344.05" gradientTransform="matrix(1, 0.04, -0.04, 1, -20.65, -19.58)" gradientUnits="userSpaceOnUse"><stop offset="0" stop-color="#63a6f9"/><stop offset="1" stop-color="#92c1fc"/></linearGradient><linearGradient id="未命名的渐变_61-2" x1="704.33" y1="265.09" x2="664.35" y2="325" gradientTransform="translate(-76.44 -124.64) rotate(13.15)" xlink:href="#未命名的渐变_61"/></defs><title>缺省</title><ellipse class="cls-1" cx="379.11" cy="482.71" rx="289.36" ry="171.62"/><path class="cls-2" d="M200.36,133.89c4.54-7.69,14.58-13.5,36-9.37,0,0,34.21-61,87.84-5.55,0,0,31.95-7.64,40.16,16.53a21.05,21.05,0,0,1-12.51,26.32c-27.52,10.56-90.6,29-142.86,1.06C198.55,157.29,194.33,144.12,200.36,133.89Z"/><path class="cls-3" d="M83.77,280.49c3.67-6.21,11.77-10.9,29.1-7.57,0,0,27.62-49.26,70.91-4.48,0,0,25.8-6.16,32.42,13.35A17,17,0,0,1,206.1,303c-22.21,8.52-73.14,23.37-115.33.85C82.31,299.38,78.9,288.75,83.77,280.49Z"/><path class="cls-4" d="M518.13,176.33c3.8-6.08,12.21-10.67,30.2-7.41,0,0,28.66-48.27,73.59-4.39,0,0,26.77-6,33.65,13.08,3,8.44-1.67,17.62-10.49,20.81-23.05,8.36-75.9,22.91-119.69.84C516.61,194.84,513.07,184.43,518.13,176.33Z"/><path class="cls-5" d="M448.09,363.93s17.4-55.67,66.91-80.68l12.14,8.31-5.92-11.95s35.45-19.73,53.5-4.47c10.13,8.57-1.79,37.71-33.64,75.13l-10.84-3.22L537,356.8S516.35,395.58,479.4,398l-17.23-15.2Z"/><path class="cls-6" d="M462.17,382.76c-1.06,1,6.51-10.19,19.2-25.93,20.23-25.08,54.13-65.57,93.35-81.69"/><path class="cls-7" d="M519.71,314.57s19.37-6.24,32.46,7.58"/><path class="cls-7" d="M521.22,370.35c-17.89-20.35-38.4-15.06-38.4-15.06"/><path class="cls-7" d="M491.78,344.64s17.66-24.23,18.15-52.39"/><path class="cls-8" d="M603.84,330.74s-29.16,86.63-120.07,78.71L468,382.58S591.69,344.87,603.84,330.74Z"/><path class="cls-9" d="M468,382.58s27.4-29.2,79.49-37.3c0,0,40.41-3.78,56.31-14.54,0,0-22.54,23.89-61.66,28.27,0,0,3.37,3.29,27.68-1.17,0,0-37.75,33.77-91.16,35.06Z"/><path class="cls-9" d="M465.45,168.78h-9.81V158.26a3,3,0,0,0-6.05,0v10.52h-9.81a2.21,2.21,0,1,0,0,4.42h9.81v10.52a3,3,0,0,0,6.05,0V173.2h9.81a2.21,2.21,0,1,0,0-4.42Z"/><path class="cls-9" d="M239.73,236.64a5.68,5.68,0,1,1-5.67,5.68,5.68,5.68,0,0,1,5.67-5.68m0-7a12.68,12.68,0,1,0,12.67,12.68,12.68,12.68,0,0,0-12.67-12.68Z"/><path class="cls-9" d="M656.49,297a5.67,5.67,0,1,1-5.67,5.67,5.67,5.67,0,0,1,5.67-5.67m0-7a12.67,12.67,0,1,0,12.67,12.67A12.67,12.67,0,0,0,656.49,290Z"/><path class="cls-9" d="M495.45,284.6c.41,4.2,1,7.63,1.05,11.06.07,29.12-.09,58.24.08,87.36.14,24.19-17.89,41.14-41.41,41q-75.78-.6-151.55,0c-22.39.21-41.65-15.62-41.55-40.84.12-29.12,0-58.24.07-87.36,0-3.47.58-6.94,1-11.44,2.8,1.86,4.69,3.09,6.56,4.37q43.43,29.47,86.84,59c17.14,11.62,28.52,11.61,45.45.1q43.66-29.68,87.36-59.32C491,287.31,492.83,286.26,495.45,284.6Z"/><path class="cls-9" d="M267.68,274.92c7.88-11.89,18.23-18.59,32-18.65q79.57-.3,159.17,0c13.75.05,24.17,6.65,32,18.43-1.48,1.19-2.81,2.41-4.29,3.41q-44.4,29.73-88.84,59.42c-14.62,9.75-22.59,9.57-37.17-.22Q316.95,308,273.28,278.9C271.56,277.74,269.9,276.5,267.68,274.92Z"/><path class="cls-10" d="M499.57,284.6c.42,4.2,1,7.63,1.05,11.06.08,29.12-.09,58.24.08,87.36.15,24.19-17.89,41.14-41.41,41q-75.78-.6-151.55,0c-22.39.21-41.65-15.62-41.55-40.84.13-29.12,0-58.24.07-87.36,0-3.47.58-6.94,1-11.44,2.8,1.86,4.69,3.09,6.56,4.37q43.43,29.47,86.84,59c17.14,11.62,28.52,11.61,45.45.1q43.67-29.68,87.36-59.32C495.16,287.31,497,286.26,499.57,284.6Z"/><path class="cls-10" d="M271.8,274.92c7.88-11.89,18.23-18.59,32-18.65q79.59-.3,159.17,0c13.75.05,24.17,6.65,32,18.43-1.49,1.19-2.81,2.41-4.3,3.41q-44.4,29.73-88.84,59.42c-14.62,9.75-22.59,9.57-37.17-.22Q321.06,308,277.41,278.9C275.68,277.74,274,276.5,271.8,274.92Z"/><text class="cls-11" transform="translate(322.33 529.46)">没有信息呦～</text></svg>