<svg id="图层_1" data-name="图层 1" xmlns="http://www.w3.org/2000/svg" xmlns:xlink="http://www.w3.org/1999/xlink" viewBox="0 0 750 750"><defs><style>.cls-1{fill:url(#新建渐变色板_1);}.cls-2{fill:url(#未命名的渐变_82);}.cls-3{fill:url(#未命名的渐变_82-2);}.cls-4{fill:url(#未命名的渐变_82-3);}.cls-5{fill:url(#未命名的渐变_61);}.cls-6,.cls-7{stroke:#aad0ff;stroke-linecap:round;stroke-miterlimit:10;stroke-width:1.74px;}.cls-6{fill:url(#未命名的渐变_61-2);}.cls-7{fill:none;}.cls-8{fill:#aad0ff;}.cls-13,.cls-9{fill:#63a6f9;}.cls-10{fill:#92c1fc;}.cls-11{fill:#f7f8f8;}.cls-12{fill:#80b7fc;}.cls-13{font-size:18px;font-family:MicrosoftYaHei, Microsoft YaHei;}</style><linearGradient id="新建渐变色板_1" x1="398.03" y1="311.09" x2="398.03" y2="654.32" gradientUnits="userSpaceOnUse"><stop offset="0" stop-color="#92c1fc" stop-opacity="0.2"/><stop offset="0.45" stop-color="#187fc4" stop-opacity="0"/></linearGradient><linearGradient id="未命名的渐变_82" x1="300.46" y1="95.68" x2="300.46" y2="177.61" gradientUnits="userSpaceOnUse"><stop offset="0.03" stop-color="#92c1fc" stop-opacity="0.4"/><stop offset="0.25" stop-color="#92c1fc" stop-opacity="0.2"/><stop offset="0.8" stop-color="#187fc4" stop-opacity="0"/></linearGradient><linearGradient id="未命名的渐变_82-2" x1="168.23" y1="249.64" x2="168.23" y2="315.78" xlink:href="#未命名的渐变_82"/><linearGradient id="未命名的渐变_82-3" x1="605.07" y1="146.11" x2="605.07" y2="210.91" xlink:href="#未命名的渐变_82"/><linearGradient id="未命名的渐变_61" x1="685.49" y1="275.33" x2="634.93" y2="326.59" gradientTransform="matrix(1, 0.04, -0.04, 1, -52.23, 40.59)" gradientUnits="userSpaceOnUse"><stop offset="0" stop-color="#63a6f9"/><stop offset="1" stop-color="#92c1fc"/></linearGradient><linearGradient id="未命名的渐变_61-2" x1="918.46" y1="-76.07" x2="878.49" y2="-16.16" gradientTransform="translate(-292.04 205.57) rotate(13.15)" xlink:href="#未命名的渐变_61"/></defs><title>缺省</title><ellipse class="cls-1" cx="398.03" cy="482.71" rx="289.36" ry="171.62"/><path class="cls-2" d="M219.28,133.89c4.54-7.69,14.58-13.5,36-9.37,0,0,34.21-61,87.84-5.55,0,0,32-7.64,40.16,16.53a21.05,21.05,0,0,1-12.51,26.32c-27.51,10.56-90.59,29-142.86,1.06C217.47,157.29,213.25,144.12,219.28,133.89Z"/><path class="cls-3" d="M102.69,280.49c3.67-6.21,11.77-10.9,29.1-7.57,0,0,27.62-49.26,70.91-4.48,0,0,25.8-6.16,32.43,13.35A17,17,0,0,1,225,303c-22.21,8.52-73.13,23.37-115.33.85C101.23,299.38,97.82,288.75,102.69,280.49Z"/><path class="cls-4" d="M537.05,176.33c3.8-6.08,12.21-10.67,30.2-7.41,0,0,28.66-48.27,73.59-4.39,0,0,26.77-6,33.65,13.08,3,8.44-1.67,17.62-10.49,20.81-23,8.36-75.9,22.91-119.69.84C535.53,194.84,532,184.43,537.05,176.33Z"/><path class="cls-5" d="M518.63,410.66S536,355,585.55,330l12.13,8.31-5.92-12s35.45-19.73,53.5-4.47c10.14,8.57-1.78,37.71-33.64,75.13l-10.84-3.22,6.74,9.75S586.89,442.31,550,444.69l-17.24-15.2Z"/><path class="cls-6" d="M532.71,429.49c-1.05,1,6.51-10.19,19.2-25.93C572.14,378.49,606,338,645.26,321.87"/><path class="cls-7" d="M590.26,361.3s19.36-6.24,32.45,7.58"/><path class="cls-7" d="M591.76,417.08c-17.88-20.35-38.4-15.06-38.4-15.06"/><path class="cls-7" d="M562.32,391.37S580,367.14,580.47,339"/><path class="cls-8" d="M674.39,377.47s-29.17,86.63-120.08,78.71l-15.73-26.87S662.24,391.6,674.39,377.47Z"/><path class="cls-9" d="M538.58,429.31S566,400.11,618.07,392c0,0,40.41-3.78,56.32-14.54,0,0-22.55,23.89-61.67,28.27,0,0,3.38,3.29,27.68-1.17,0,0-37.74,33.77-91.16,35.06Z"/><path class="cls-9" d="M471.69,151h-9.8V140.48a3,3,0,0,0-6.05,0V151H446a2.22,2.22,0,1,0,0,4.43h9.81v10.51a3,3,0,0,0,6.05,0V155.42h9.8a2.22,2.22,0,1,0,0-4.43Z"/><path class="cls-9" d="M218.32,245.13a5.67,5.67,0,1,1-5.67,5.67,5.67,5.67,0,0,1,5.67-5.67m0-7A12.67,12.67,0,1,0,231,250.8a12.67,12.67,0,0,0-12.67-12.67Z"/><path class="cls-9" d="M583.84,297.23a5.67,5.67,0,1,1-5.67,5.67,5.68,5.68,0,0,1,5.67-5.67m0-7a12.67,12.67,0,1,0,12.67,12.67,12.67,12.67,0,0,0-12.67-12.67Z"/><path class="cls-9" d="M540.81,195.22h-117l17.76,54.42L404,297.77l13.06,37.82L389.85,401.4V339l-5.43-34-4.71-36.71,4.71-30.16L375,204.88l-2.8-9.66H257.26a12,12,0,0,0-12,12V459.5a12,12,0,0,0,12,12H540.81a12,12,0,0,0,12-12V207.22A12,12,0,0,0,540.81,195.22Z"/><path class="cls-10" d="M545.81,195.22h-122l17.76,54.42L404,297.77l13.06,37.82L389.85,401.4V339l-5.43-34-4.71-36.71,4.71-30.16L375,204.88l-2.8-9.66H262.26a12,12,0,0,0-12,12V459.5a12,12,0,0,0,12,12H545.81a12,12,0,0,0,12-12V207.22A12,12,0,0,0,545.81,195.22Z"/><path class="cls-11" d="M275.55,455.69a11,11,0,0,1-11-11V222a11,11,0,0,1,11-11H375.7l7.7,27.17-4.7,30.09,4.73,36.85,5.42,33.93v67.37l29.32-70.8-13-37.67,37.53-48.13L430,211h102.5a11,11,0,0,1,11,11V444.69a11,11,0,0,1-11,11Z"/><path class="cls-10" d="M532.52,212a10,10,0,0,1,10,10V444.69a10,10,0,0,1-10,10h-257a10,10,0,0,1-10-10V222a10,10,0,0,1,10-10H375l7.43,26.23L377.73,268l0,.28,0,.29,4.71,36.71v.06l5.4,33.82v72.32l3.84-9.29L419,336.36l.29-.7-.25-.72-12.71-36.8,36.87-47.27.66-.84-.33-1L431.4,212H532.52m0-2H428.64l12.93,39.62L404,297.77l13.06,37.82L389.85,401.4V339l-5.43-34-4.71-36.71,4.71-30.16-8-28.11H275.55a12,12,0,0,0-12,12V444.69a12,12,0,0,0,12,12h257a12,12,0,0,0,12-12V222a12,12,0,0,0-12-12Z"/><path class="cls-9" d="M287.79,416.49l73.46-102.57c1.69-2.37,4.64-1.59,5.56,1.46L389,389.76c1.09,3.65,4.87,3.84,6.16.31L453.76,266c1.26-3.47,5-3.36,6.12.18L520,414.78c1,3-.63,6.34-3,6.37l-226.73,3c-1.88,0-3.41-2-3.41-4.54h0A5.47,5.47,0,0,1,287.79,416.49Z"/><path class="cls-12" d="M292.19,416.49l73.46-102.57c1.7-2.37,4.65-1.59,5.56,1.46l22.22,74.38c1.09,3.65,4.87,3.84,6.16.31L458.16,266c1.27-3.47,5-3.36,6.12.18l60.16,148.59c1,3-.64,6.34-3.06,6.37l-226.73,3c-1.88,0-3.41-2-3.41-4.54h0A5.47,5.47,0,0,1,292.19,416.49Z"/><text class="cls-13" transform="translate(349.07 550.77)">图片不存在呢～</text></svg>