<svg id="图层_1" data-name="图层 1" xmlns="http://www.w3.org/2000/svg" xmlns:xlink="http://www.w3.org/1999/xlink" viewBox="0 0 750 750"><defs><style>.cls-1{fill:url(#新建渐变色板_1);}.cls-2{fill:url(#未命名的渐变_82);}.cls-3{fill:url(#未命名的渐变_82-2);}.cls-4{fill:url(#未命名的渐变_82-3);}.cls-5{fill:url(#未命名的渐变_61);}.cls-6,.cls-7{stroke:#aad0ff;stroke-linecap:round;stroke-miterlimit:10;stroke-width:1.74px;}.cls-6{fill:url(#未命名的渐变_61-2);}.cls-7{fill:none;}.cls-8{fill:#aad0ff;}.cls-10,.cls-9{fill:#63a6f9;}.cls-10{font-size:18px;font-family:MicrosoftYaHei, Microsoft YaHei;}.cls-11{fill:#92c1fc;}</style><linearGradient id="新建渐变色板_1" x1="407.52" y1="356.83" x2="407.52" y2="700.07" gradientUnits="userSpaceOnUse"><stop offset="0" stop-color="#92c1fc" stop-opacity="0.2"/><stop offset="0.45" stop-color="#187fc4" stop-opacity="0"/></linearGradient><linearGradient id="未命名的渐变_82" x1="309.95" y1="141.42" x2="309.95" y2="223.35" gradientUnits="userSpaceOnUse"><stop offset="0.03" stop-color="#92c1fc" stop-opacity="0.4"/><stop offset="0.25" stop-color="#92c1fc" stop-opacity="0.2"/><stop offset="0.8" stop-color="#187fc4" stop-opacity="0"/></linearGradient><linearGradient id="未命名的渐变_82-2" x1="177.72" y1="295.39" x2="177.72" y2="361.53" xlink:href="#未命名的渐变_82"/><linearGradient id="未命名的渐变_82-3" x1="614.56" y1="191.86" x2="614.56" y2="256.66" xlink:href="#未命名的渐变_82"/><linearGradient id="未命名的渐变_61" x1="532.83" y1="303.18" x2="482.27" y2="354.44" gradientTransform="matrix(1, 0.04, -0.04, 1, 9.14, 11.4)" gradientUnits="userSpaceOnUse"><stop offset="0" stop-color="#63a6f9"/><stop offset="1" stop-color="#92c1fc"/></linearGradient><linearGradient id="未命名的渐变_61-2" x1="496.71" y1="153.34" x2="456.74" y2="213.25" gradientTransform="translate(78.57 70.76) rotate(13.15)" xlink:href="#未命名的渐变_61"/></defs><title>缺省</title><ellipse class="cls-1" cx="407.52" cy="528.45" rx="289.36" ry="171.62"/><path class="cls-2" d="M228.77,179.64c4.54-7.7,14.58-13.5,36-9.37,0,0,34.21-61,87.84-5.55,0,0,32-7.64,40.16,16.53a21.05,21.05,0,0,1-12.51,26.32c-27.51,10.56-90.59,29-142.86,1.06C227,203,222.74,189.87,228.77,179.64Z"/><path class="cls-3" d="M112.18,326.24c3.67-6.21,11.77-10.9,29.1-7.57,0,0,27.62-49.26,70.91-4.48,0,0,25.8-6.17,32.43,13.35a17,17,0,0,1-10.11,21.25c-22.21,8.52-73.13,23.37-115.33.85C110.72,345.12,107.31,334.5,112.18,326.24Z"/><path class="cls-4" d="M546.54,222.08c3.8-6.08,12.21-10.68,30.2-7.41,0,0,28.66-48.27,73.59-4.39,0,0,26.77-6,33.65,13.08,3,8.44-1.67,17.62-10.49,20.81-23,8.35-75.9,22.91-119.69.84C545,240.59,541.48,230.17,546.54,222.08Z"/><path class="cls-5" d="M426.35,403.27s17.41-55.67,66.92-80.67l12.13,8.3L499.49,319s35.44-19.74,53.49-4.47c10.14,8.57-1.78,37.71-33.64,75.12L508.5,386.4l6.75,9.75s-20.63,38.78-57.58,41.16L440.44,422.1Z"/><path class="cls-6" d="M440.44,422.1c-1.06,1,6.5-10.18,19.2-25.92,20.22-25.08,54.12-65.58,93.34-81.69"/><path class="cls-7" d="M498,353.92s19.37-6.24,32.46,7.58"/><path class="cls-7" d="M499.49,409.69c-17.89-20.35-38.4-15.05-38.4-15.05"/><path class="cls-7" d="M470,384s17.66-24.22,18.15-52.38"/><path class="cls-8" d="M582.11,370.08S552.94,456.72,462,448.79l-15.72-26.86S570,384.22,582.11,370.08Z"/><path class="cls-9" d="M446.31,421.93s27.4-29.21,79.48-37.3c0,0,40.42-3.78,56.32-14.55,0,0-22.54,23.9-61.66,28.28,0,0,3.37,3.28,27.68-1.18,0,0-37.75,33.77-91.16,35.07Z"/><path class="cls-9" d="M501.89,227.66h-9.81V217.14a3,3,0,0,0-6.05,0v10.52h-9.81a2.21,2.21,0,1,0,0,4.42H486v10.51a3,3,0,0,0,6.05,0V232.08h9.81a2.21,2.21,0,1,0,0-4.42Z"/><path class="cls-9" d="M248.51,321.79a5.67,5.67,0,1,1-5.67,5.67,5.68,5.68,0,0,1,5.67-5.67m0-7a12.67,12.67,0,1,0,12.68,12.67,12.67,12.67,0,0,0-12.68-12.67Z"/><path class="cls-9" d="M614,373.89a5.67,5.67,0,1,1-5.67,5.67,5.67,5.67,0,0,1,5.67-5.67m0-7a12.67,12.67,0,1,0,12.67,12.67A12.67,12.67,0,0,0,614,366.89Z"/><path class="cls-9" d="M316.42,478.24c-4.39-1.37-9.06-2.18-13.11-4.21-8.08-4.06-12.93-10.81-13-20.09-.14-23.16,0-46.33-.08-69.49-.06-12.38,11-24.07,24.25-24.13q69.22-.33,138.45.09c11.42.08,23,11,22.76,23.8-.44,22.49-.58,45,.05,67.48.4,14.66-10.42,24.49-23.55,25.72a14.25,14.25,0,0,0-2.78.83Zm73-47.24c5.17-4.55,9.94-7.32,12.64-11.44a17.68,17.68,0,0,0-1.07-21.5c-6-7.46-14.55-10.19-24.12-8-9.9,2.31-16.3,9.66-16.88,18.25-.56,8.19,4.37,13.63,10.36,16.68,5.67,2.89,6.6,6.34,6.1,11.57a43.71,43.71,0,0,0,0,5.49c.15,4.7,2.31,7.11,6.4,7.19,3.9.08,6.45-2.57,6.56-7.08C389.5,437.89,389.42,433.58,389.42,431Z"/><path class="cls-9" d="M441.27,347.45H420.39c-2.31-8.67-3.88-17.47-7-25.66-4.71-12.27-13.45-20.66-27-23-10-1.73-18.48,2.11-25.41,8.56a40.86,40.86,0,0,0-13,23.49c-.9,5.44-2.48,10.77-3.86,16.56H323.5c-.19-17.28,4.64-32.55,15-46.3,7.65-10.19,17.21-17.33,29.42-20.72,17.13-4.77,32.84-1.61,47,9.07,7.92,6,13.38,13.75,18.25,22.37C439.5,323,440.38,334.93,441.27,347.45Z"/><text class="cls-10" transform="translate(340.41 546.21)">暂无权限呦～</text><path class="cls-11" d="M324.37,478.17C320,476.8,315.31,476,311.26,474c-8.09-4.06-12.93-10.81-13-20.1-.14-23.16,0-46.32-.08-69.48-.06-12.38,11-24.07,24.24-24.13q69.24-.33,138.46.09c11.42.08,23,11,22.76,23.8-.44,22.49-.58,45,.05,67.48.4,14.66-10.42,24.49-23.55,25.72a14,14,0,0,0-2.78.83Zm73-47.24c5.18-4.55,9.95-7.32,12.64-11.44a17.65,17.65,0,0,0-1.07-21.5c-6-7.46-14.54-10.19-24.11-8-9.9,2.31-16.3,9.66-16.88,18.24-.56,8.19,4.37,13.64,10.36,16.69,5.67,2.89,6.6,6.34,6.1,11.57a41.75,41.75,0,0,0,0,5.48c.15,4.71,2.31,7.12,6.4,7.2,3.89.08,6.45-2.57,6.56-7.08C397.45,437.82,397.36,433.5,397.36,430.93Z"/><path class="cls-11" d="M449.22,347.38H428.33c-2.3-8.67-3.87-17.47-7-25.66-4.71-12.27-13.45-20.66-27-23-10-1.73-18.48,2.11-25.41,8.56a40.86,40.86,0,0,0-13,23.49c-.9,5.44-2.48,10.76-3.86,16.56H331.45c-.19-17.28,4.64-32.55,15-46.3,7.65-10.19,17.21-17.33,29.42-20.73,17.13-4.76,32.84-1.6,47,9.08,7.92,6,13.38,13.75,18.25,22.36C447.45,322.9,448.33,334.86,449.22,347.38Z"/></svg>