<svg id="图层_1" data-name="图层 1" xmlns="http://www.w3.org/2000/svg" xmlns:xlink="http://www.w3.org/1999/xlink" viewBox="0 0 750 750"><defs><style>.cls-1{fill:url(#新建渐变色板_1);}.cls-2{fill:url(#未命名的渐变_82);}.cls-3{fill:url(#未命名的渐变_82-2);}.cls-4{fill:url(#未命名的渐变_82-3);}.cls-5{fill:url(#未命名的渐变_61);}.cls-6,.cls-7{stroke:#aad0ff;stroke-linecap:round;stroke-miterlimit:10;stroke-width:1.74px;}.cls-6{fill:url(#未命名的渐变_61-2);}.cls-7{fill:none;}.cls-8{fill:#aad0ff;}.cls-13,.cls-9{fill:#63a6f9;}.cls-10{fill:#92c1fc;}.cls-11{fill:#fdfefe;}.cls-12{fill:#f7f8f8;}.cls-13{font-size:18px;font-family:MicrosoftYaHei, Microsoft YaHei;}</style><linearGradient id="新建渐变色板_1" x1="399.06" y1="278.91" x2="399.06" y2="622.14" gradientUnits="userSpaceOnUse"><stop offset="0" stop-color="#92c1fc" stop-opacity="0.2"/><stop offset="0.45" stop-color="#187fc4" stop-opacity="0"/></linearGradient><linearGradient id="未命名的渐变_82" x1="301.49" y1="63.49" x2="301.49" y2="145.42" gradientUnits="userSpaceOnUse"><stop offset="0.03" stop-color="#92c1fc" stop-opacity="0.4"/><stop offset="0.25" stop-color="#92c1fc" stop-opacity="0.2"/><stop offset="0.8" stop-color="#187fc4" stop-opacity="0"/></linearGradient><linearGradient id="未命名的渐变_82-2" x1="169.26" y1="217.46" x2="169.26" y2="283.6" xlink:href="#未命名的渐变_82"/><linearGradient id="未命名的渐变_82-3" x1="606.1" y1="113.93" x2="606.1" y2="178.73" xlink:href="#未命名的渐变_82"/><linearGradient id="未命名的渐变_61" x1="654.63" y1="328.03" x2="604.07" y2="379.29" gradientTransform="matrix(1, 0.04, -0.04, 1, -51.03, -20.18)" gradientUnits="userSpaceOnUse"><stop offset="0" stop-color="#63a6f9"/><stop offset="1" stop-color="#92c1fc"/></linearGradient><linearGradient id="未命名的渐变_61-2" x1="925.85" y1="272.48" x2="885.87" y2="332.39" gradientTransform="translate(-251.64 -144.84) rotate(13.15)" xlink:href="#未命名的渐变_61"/></defs><title>缺省</title><ellipse class="cls-1" cx="399.06" cy="450.52" rx="289.36" ry="171.62"/><path class="cls-2" d="M220.31,101.71c4.54-7.69,14.58-13.5,36-9.37,0,0,34.21-61,87.84-5.55,0,0,32-7.64,40.16,16.53a21.05,21.05,0,0,1-12.51,26.32c-27.51,10.56-90.6,29-142.86,1.06C218.5,125.1,214.28,111.94,220.31,101.71Z"/><path class="cls-3" d="M103.72,248.31c3.67-6.21,11.77-10.9,29.1-7.57,0,0,27.62-49.26,70.91-4.48,0,0,25.8-6.16,32.43,13.35a17,17,0,0,1-10.11,21.25c-22.21,8.52-73.13,23.37-115.33.85C102.26,267.2,98.85,256.57,103.72,248.31Z"/><path class="cls-4" d="M538.08,144.15c3.8-6.08,12.21-10.67,30.2-7.41,0,0,28.66-48.27,73.59-4.39,0,0,26.77-6,33.65,13.08,3,8.44-1.67,17.62-10.49,20.81-23,8.36-75.9,22.91-119.69.84C536.56,162.66,533,152.25,538.08,144.15Z"/><path class="cls-5" d="M486.91,401.33s17.41-55.67,66.92-80.68L566,329,560,317s35.45-19.73,53.5-4.47c10.14,8.57-1.78,37.71-33.64,75.13l-10.84-3.22,6.74,9.75S555.17,433,518.23,435.36L501,420.16Z"/><path class="cls-6" d="M501,420.16c-1.05,1,6.51-10.19,19.2-25.93,20.23-25.07,54.13-65.57,93.35-81.69"/><path class="cls-7" d="M558.54,352s19.36-6.24,32.45,7.59"/><path class="cls-7" d="M560,407.75c-17.88-20.35-38.39-15.06-38.39-15.06"/><path class="cls-7" d="M530.6,382s17.66-24.23,18.15-52.39"/><path class="cls-8" d="M642.67,368.14s-29.17,86.63-120.08,78.71L506.86,420S630.52,382.27,642.67,368.14Z"/><path class="cls-9" d="M506.86,420s27.41-29.2,79.49-37.3c0,0,40.42-3.78,56.32-14.54,0,0-22.55,23.89-61.67,28.27,0,0,3.38,3.29,27.68-1.17,0,0-37.74,33.77-91.16,35.07Z"/><path class="cls-9" d="M485.4,136.6h-9.81V126.08a3,3,0,0,0-6,0V136.6h-9.81a2.21,2.21,0,1,0,0,4.42h9.81v10.52a3,3,0,0,0,6,0V141h9.81a2.21,2.21,0,1,0,0-4.42Z"/><path class="cls-9" d="M232,230.73a5.68,5.68,0,1,1-5.67,5.67,5.68,5.68,0,0,1,5.67-5.67m0-7a12.68,12.68,0,1,0,12.67,12.67A12.67,12.67,0,0,0,232,223.73Z"/><path class="cls-9" d="M597.54,282.83a5.68,5.68,0,1,1-5.67,5.67,5.68,5.68,0,0,1,5.67-5.67m0-7a12.68,12.68,0,1,0,12.67,12.67,12.67,12.67,0,0,0-12.67-12.67Z"/><path class="cls-9" d="M511.84,456.21H259.38A12.46,12.46,0,0,1,247,443.64V257.5a12.46,12.46,0,0,1,12.34-12.58H372.86a12.34,12.34,0,0,1,11.37,7.71l11,26.66A12.34,12.34,0,0,0,406.57,287H511.84a12.45,12.45,0,0,1,12.34,12.57V443.64A12.45,12.45,0,0,1,511.84,456.21Z"/><rect class="cls-9" x="380.2" y="258.38" width="139.11" height="66.25" rx="12"/><path class="cls-10" d="M518.89,456.21H266.43a12.45,12.45,0,0,1-12.34-12.57V257.5a12.46,12.46,0,0,1,12.34-12.58H379.9a12.34,12.34,0,0,1,11.38,7.71l11,26.66A12.33,12.33,0,0,0,413.62,287H518.89a12.46,12.46,0,0,1,12.34,12.57V443.64A12.46,12.46,0,0,1,518.89,456.21Z"/><path class="cls-11" d="M358.91,423.63a7.8,7.8,0,0,1-7.62-9.3c1.49-7.86,3-15.7,4.63-23.55a4.94,4.94,0,0,0-1.46-5.16c-5.59-5.37-11.13-10.8-16.93-15.94a8.51,8.51,0,0,1-2.64-8.71,7,7,0,0,1,5.9-5.53c7.72-1.47,15.43-3,23.19-4.27,2.92-.48,4.83-1.5,6.12-4.47,3-6.88,6.38-13.57,9.61-20.34,1.56-3.28,3.8-5.66,7.65-5.58,3.67.07,5.79,2.3,7.3,5.56,3.41,7.37,7,14.66,10.46,22a3.43,3.43,0,0,0,2.85,2.28c7.95,1.29,15.85,2.91,23.81,4.16,3.92.62,6.64,2.49,7.77,6.31,1.07,3.6-.61,6.39-3.12,8.77q-8.43,8-16.88,16a3.59,3.59,0,0,0-1.24,3.77c1.61,8,3.05,16.12,4.46,24.21.54,3.09.13,6.12-2.46,8.15-2.81,2.21-5.94,2.27-9.13.62-7.23-3.73-14.51-7.36-21.71-11.13a4.62,4.62,0,0,0-4.82,0c-6.63,3.56-13.31,7-20,10.47A11.1,11.1,0,0,1,358.91,423.63Z"/><rect class="cls-12" x="456.91" y="301" width="57.4" height="7.18" rx="3.31"/><text class="cls-13" transform="translate(322.33 550.77)">您还没有收藏宝贝呢～</text></svg>