<svg id="图层_1" data-name="图层 1" xmlns="http://www.w3.org/2000/svg" xmlns:xlink="http://www.w3.org/1999/xlink" viewBox="0 0 750 750"><defs><style>.cls-1{fill:url(#新建渐变色板_1);}.cls-2{fill:url(#未命名的渐变_82);}.cls-3{fill:url(#未命名的渐变_82-2);}.cls-4{fill:url(#未命名的渐变_82-3);}.cls-5{fill:url(#未命名的渐变_61);}.cls-6,.cls-7{stroke:#aad0ff;stroke-linecap:round;stroke-miterlimit:10;stroke-width:1.74px;}.cls-6{fill:url(#未命名的渐变_61-2);}.cls-7{fill:none;}.cls-8{fill:#aad0ff;}.cls-13,.cls-9{fill:#63a6f9;}.cls-10{fill:#92c1fc;}.cls-11{fill:#3888e0;}.cls-12{fill:#f7f8f8;}.cls-13{font-size:18px;font-family:MicrosoftYaHei, Microsoft YaHei;}</style><linearGradient id="新建渐变色板_1" x1="388.78" y1="345.71" x2="388.78" y2="688.94" gradientUnits="userSpaceOnUse"><stop offset="0" stop-color="#92c1fc" stop-opacity="0.2"/><stop offset="0.45" stop-color="#187fc4" stop-opacity="0"/></linearGradient><linearGradient id="未命名的渐变_82" x1="291.22" y1="130.29" x2="291.22" y2="212.23" gradientUnits="userSpaceOnUse"><stop offset="0.03" stop-color="#92c1fc" stop-opacity="0.4"/><stop offset="0.25" stop-color="#92c1fc" stop-opacity="0.2"/><stop offset="0.8" stop-color="#187fc4" stop-opacity="0"/></linearGradient><linearGradient id="未命名的渐变_82-2" x1="158.99" y1="284.26" x2="158.99" y2="350.4" xlink:href="#未命名的渐变_82"/><linearGradient id="未命名的渐变_82-3" x1="595.82" y1="180.73" x2="595.82" y2="245.53" xlink:href="#未命名的渐变_82"/><linearGradient id="未命名的渐变_61" x1="555.16" y1="315.09" x2="504.6" y2="366.35" gradientTransform="matrix(1, 0.04, -0.04, 1, 8.54, 41.79)" gradientUnits="userSpaceOnUse"><stop offset="0" stop-color="#63a6f9"/><stop offset="1" stop-color="#92c1fc"/></linearGradient><linearGradient id="未命名的渐变_61-2" x1="507.03" y1="15.34" x2="467.05" y2="75.25" gradientTransform="translate(58.37 245.97) rotate(13.15)" xlink:href="#未命名的渐变_61"/></defs><title>缺省</title><ellipse class="cls-1" cx="388.78" cy="517.33" rx="289.36" ry="171.62"/><path class="cls-2" d="M210,168.51c4.53-7.69,14.57-13.5,36-9.37,0,0,34.21-61,87.83-5.55,0,0,32-7.64,40.16,16.53a21,21,0,0,1-12.51,26.32C334.05,207,271,225.4,218.7,197.5,208.22,191.91,204,178.74,210,168.51Z"/><path class="cls-3" d="M93.45,315.11c3.66-6.21,11.77-10.9,29.09-7.57,0,0,27.62-49.26,70.92-4.48,0,0,25.79-6.16,32.42,13.35a17,17,0,0,1-10.1,21.25c-22.21,8.52-73.14,23.37-115.33.85C92,334,88.57,323.37,93.45,315.11Z"/><path class="cls-4" d="M527.8,211c3.81-6.08,12.22-10.67,30.2-7.41,0,0,28.66-48.27,73.59-4.39,0,0,26.78-6,33.65,13.08,3,8.44-1.67,17.62-10.48,20.81-23,8.36-75.91,22.91-119.69.84C526.29,229.46,522.75,219.05,527.8,211Z"/><path class="cls-5" d="M447.6,446.44s17.41-55.67,66.92-80.67l12.13,8.3-5.92-11.94s35.45-19.74,53.5-4.48c10.14,8.58-1.78,37.72-33.64,75.13l-10.84-3.22,6.74,9.75s-20.63,38.78-57.57,41.17l-17.24-15.21Z"/><path class="cls-6" d="M461.68,465.27c-1.05,1,6.51-10.19,19.2-25.92,20.23-25.08,54.13-65.58,93.35-81.7"/><path class="cls-7" d="M519.23,397.08s19.36-6.23,32.45,7.59"/><path class="cls-7" d="M520.73,452.86c-17.89-20.35-38.4-15.05-38.4-15.05"/><path class="cls-7" d="M491.29,427.15s17.66-24.23,18.15-52.38"/><path class="cls-8" d="M603.36,413.25S574.19,499.89,483.28,492l-15.73-26.87S591.21,427.39,603.36,413.25Z"/><path class="cls-9" d="M467.55,465.09S495,435.89,547,427.8c0,0,40.41-3.78,56.32-14.55,0,0-22.55,23.89-61.67,28.28,0,0,3.37,3.28,27.68-1.18,0,0-37.74,33.77-91.16,35.07Z"/><path class="cls-9" d="M491,203.4h-9.8V192.88a3,3,0,0,0-6.06,0V203.4h-9.8a2.21,2.21,0,1,0,0,4.42h9.8v10.52a3,3,0,0,0,6.06,0V207.82H491a2.21,2.21,0,1,0,0-4.42Z"/><path class="cls-9" d="M234.42,332.67a5.67,5.67,0,1,1-5.67,5.67,5.67,5.67,0,0,1,5.67-5.67m0-7a12.67,12.67,0,1,0,12.67,12.67,12.67,12.67,0,0,0-12.67-12.67Z"/><path class="cls-9" d="M653.49,369.33a5.67,5.67,0,1,1-5.67,5.67,5.67,5.67,0,0,1,5.67-5.67m0-7A12.67,12.67,0,1,0,666.16,375a12.67,12.67,0,0,0-12.67-12.67Z"/><rect class="cls-10" x="281.28" y="292.3" width="244.28" height="33.44" rx="12"/><rect class="cls-11" x="291.22" y="304.27" width="224.59" height="11.48" rx="3.61"/><path class="cls-12" d="M312.16,520.86a7,7,0,0,1-7.11-6,8.66,8.66,0,0,1-.09-1.25V311.08h199.1V513.65c0,.21,0,.41,0,.61a7,7,0,0,1-7.15,6.4,7.14,7.14,0,0,1-4.91-1.94l-9.5-8.78a13.27,13.27,0,0,0-18.09.1l-7.12,6.72a7.28,7.28,0,0,1-10-.06l-6.7-6.45a13.25,13.25,0,0,0-18.25-.15l-7.71,7.21a7.24,7.24,0,0,1-9.57.3l-10.6-8.73a13.26,13.26,0,0,0-17.17.25l-9.95,8.72a7.25,7.25,0,0,1-9.2.3l-12.73-9.77a13.37,13.37,0,0,0-8.07-2.74,13.23,13.23,0,0,0-8.71,3.27L317,519.05A7.17,7.17,0,0,1,312.16,520.86Z"/><path class="cls-9" d="M501.06,314.08V513.65c0,.14,0,.28,0,.41a4,4,0,0,1-4.15,3.6,4.17,4.17,0,0,1-2.87-1.14l-9.5-8.78a16.27,16.27,0,0,0-22.19.12l-7.12,6.71a4.27,4.27,0,0,1-5.88,0l-6.7-6.45a16.24,16.24,0,0,0-22.38-.18l-7.71,7.21a4.25,4.25,0,0,1-5.61.18l-10.61-8.74a16.24,16.24,0,0,0-21,.32l-10,8.71a4.24,4.24,0,0,1-2.8,1.06,4.19,4.19,0,0,1-2.59-.88L347.2,506a16.26,16.26,0,0,0-20.59.65L315,516.79a4.27,4.27,0,0,1-2.83,1.07,4,4,0,0,1-4.14-3.38,5.69,5.69,0,0,1-.06-.83V314.08h193.1m4.41-6H303.55a1.59,1.59,0,0,0-1.59,1.58v204a11.62,11.62,0,0,0,.12,1.67,10,10,0,0,0,10.08,8.54,10.19,10.19,0,0,0,6.77-2.55l11.63-10.14a10.26,10.26,0,0,1,13-.41l12.72,9.77a10.27,10.27,0,0,0,13-.42l10-8.72a10.26,10.26,0,0,1,13.28-.2l10.6,8.74a10.25,10.25,0,0,0,13.53-.43l7.71-7.2a10.24,10.24,0,0,1,14.12.11l6.7,6.45a10.27,10.27,0,0,0,14.16.08l7.12-6.72a10.26,10.26,0,0,1,14-.07l9.51,8.78a10.12,10.12,0,0,0,6.94,2.73A10,10,0,0,0,507,514.47c0-.27,0-.54,0-.82v-204a1.59,1.59,0,0,0-1.59-1.58Z"/><rect class="cls-10" x="331.02" y="345.71" width="47.59" height="9.6" rx="4.8"/><rect class="cls-10" x="331.02" y="366.4" width="130.57" height="8.6" rx="4.3"/><rect class="cls-10" x="331.02" y="411.5" width="47.59" height="9.6" rx="4.8"/><rect class="cls-10" x="331.02" y="432.19" width="130.57" height="8.6" rx="4.3"/><text class="cls-13" transform="translate(349.07 575.79)">您还没有发票呢～</text></svg>