<svg id="图层_1" data-name="图层 1" xmlns="http://www.w3.org/2000/svg" xmlns:xlink="http://www.w3.org/1999/xlink" viewBox="0 0 750 750"><defs><style>.cls-1{fill:url(#新建渐变色板_1);}.cls-2{fill:url(#未命名的渐变_82);}.cls-3{fill:url(#未命名的渐变_82-2);}.cls-4{fill:url(#未命名的渐变_82-3);}.cls-5{fill:url(#未命名的渐变_61);}.cls-6,.cls-7{stroke:#aad0ff;stroke-linecap:round;stroke-miterlimit:10;stroke-width:1.74px;}.cls-6{fill:url(#未命名的渐变_61-2);}.cls-7{fill:none;}.cls-8{fill:#aad0ff;}.cls-13,.cls-9{fill:#63a6f9;}.cls-10{fill:url(#未命名的渐变_21);}.cls-11{fill:url(#未命名的渐变_27);}.cls-12{fill:url(#未命名的渐变_21-2);}.cls-13{font-size:18px;font-family:MicrosoftYaHei, Microsoft YaHei;}</style><linearGradient id="新建渐变色板_1" x1="379.11" y1="349.47" x2="379.11" y2="692.71" gradientUnits="userSpaceOnUse"><stop offset="0" stop-color="#92c1fc" stop-opacity="0.2"/><stop offset="0.45" stop-color="#187fc4" stop-opacity="0"/></linearGradient><linearGradient id="未命名的渐变_82" x1="281.54" y1="134.06" x2="281.54" y2="215.99" gradientUnits="userSpaceOnUse"><stop offset="0.03" stop-color="#92c1fc" stop-opacity="0.4"/><stop offset="0.25" stop-color="#92c1fc" stop-opacity="0.2"/><stop offset="0.8" stop-color="#187fc4" stop-opacity="0"/></linearGradient><linearGradient id="未命名的渐变_82-2" x1="149.31" y1="288.03" x2="149.31" y2="354.17" xlink:href="#未命名的渐变_82"/><linearGradient id="未命名的渐变_82-3" x1="586.15" y1="184.5" x2="586.15" y2="249.3" xlink:href="#未命名的渐变_82"/><linearGradient id="未命名的渐变_61" x1="673.55" y1="225.37" x2="622.99" y2="276.63" gradientTransform="matrix(-1, 0.04, 0.04, 1, 957.43, 72.17)" gradientUnits="userSpaceOnUse"><stop offset="0" stop-color="#63a6f9"/><stop offset="1" stop-color="#92c1fc"/></linearGradient><linearGradient id="未命名的渐变_61-2" x1="592.46" y1="-240.62" x2="552.48" y2="-180.71" gradientTransform="matrix(-0.97, 0.23, 0.23, 0.97, 927.19, 421.18)" xlink:href="#未命名的渐变_61"/><linearGradient id="未命名的渐变_21" x1="450.61" y1="494.24" x2="391.81" y2="392.39" gradientUnits="userSpaceOnUse"><stop offset="0" stop-color="#aad0ff"/><stop offset="0.58" stop-color="#7eb6fb"/><stop offset="1" stop-color="#63a6f9"/></linearGradient><linearGradient id="未命名的渐变_27" x1="400.29" y1="466.61" x2="427.72" y2="514.12" gradientUnits="userSpaceOnUse"><stop offset="0" stop-color="#63a6f9"/><stop offset="1" stop-color="#63a6f9"/></linearGradient><linearGradient id="未命名的渐变_21-2" x1="492.64" y1="284.97" x2="357.95" y2="518.26" xlink:href="#未命名的渐变_21"/></defs><title>缺省</title><ellipse class="cls-1" cx="379.11" cy="521.09" rx="289.36" ry="171.62"/><path class="cls-2" d="M200.36,172.28c4.54-7.69,14.58-13.5,36-9.37,0,0,34.21-61,87.84-5.55,0,0,31.95-7.64,40.16,16.53a21.05,21.05,0,0,1-12.51,26.32c-27.52,10.56-90.6,29-142.86,1.06C198.55,195.67,194.33,182.51,200.36,172.28Z"/><path class="cls-3" d="M83.77,318.88c3.67-6.21,11.77-10.9,29.1-7.57,0,0,27.62-49.26,70.91-4.48,0,0,25.8-6.17,32.42,13.35a17,17,0,0,1-10.1,21.25C183.89,350,133,364.8,90.77,342.28,82.31,337.77,78.9,327.14,83.77,318.88Z"/><path class="cls-4" d="M518.13,214.72c3.8-6.08,12.21-10.68,30.2-7.41,0,0,28.66-48.27,73.59-4.39,0,0,26.77-6,33.65,13.08,3,8.44-1.67,17.62-10.49,20.81-23.05,8.36-75.9,22.91-119.69.84C516.61,233.23,513.07,222.81,518.13,214.72Z"/><path class="cls-5" d="M396.53,391.84s-17.41-55.67-66.92-80.67l-12.13,8.3,5.92-11.94s-35.45-19.74-53.5-4.48c-10.14,8.58,1.78,37.72,33.64,75.13L314.38,375l-6.74,9.74s20.63,38.79,57.57,41.17l17.24-15.21Z"/><path class="cls-6" d="M382.45,410.67c1.05,1.05-6.51-10.19-19.2-25.92-20.23-25.08-54.13-65.58-93.35-81.7"/><path class="cls-7" d="M324.91,342.48s-19.37-6.23-32.46,7.59"/><path class="cls-7" d="M323.4,398.26c17.89-20.35,38.4-15.05,38.4-15.05"/><path class="cls-7" d="M352.84,372.55s-17.66-24.22-18.15-52.38"/><path class="cls-8" d="M240.77,358.65s29.17,86.64,120.08,78.71l15.73-26.87S252.92,372.79,240.77,358.65Z"/><path class="cls-9" d="M376.58,410.49s-27.41-29.2-79.49-37.29c0,0-40.41-3.78-56.32-14.55,0,0,22.55,23.89,61.67,28.28,0,0-3.37,3.28-27.68-1.18,0,0,37.74,33.77,91.16,35.07Z"/><path class="cls-9" d="M465.45,207.17h-9.81V196.65a3,3,0,0,0-6.05,0v10.52h-9.81a2.21,2.21,0,1,0,0,4.42h9.81v10.52a3,3,0,0,0,6.05,0V211.59h9.81a2.21,2.21,0,1,0,0-4.42Z"/><path class="cls-9" d="M212.07,301.3A5.68,5.68,0,1,1,206.4,307a5.68,5.68,0,0,1,5.67-5.67m0-7A12.68,12.68,0,1,0,224.74,307a12.67,12.67,0,0,0-12.67-12.67Z"/><path class="cls-9" d="M577.59,353.4a5.68,5.68,0,1,1-5.67,5.67,5.68,5.68,0,0,1,5.67-5.67m0-7a12.68,12.68,0,1,0,12.67,12.67,12.67,12.67,0,0,0-12.67-12.67Z"/><polygon class="cls-10" points="364.61 462.35 459.98 367.57 389.37 531.06 364.61 462.35"/><polygon class="cls-11" points="411.3 459.57 395.31 476.75 388.37 530.06 444.77 459.57 411.3 459.57"/><polygon class="cls-12" points="280.09 440.02 510.52 291.93 486.82 508.14 395.31 476.75 454.84 372.49 367.76 467.86 280.09 440.02"/><text class="cls-13" transform="translate(342.6 575.79)">没有推送哦～</text></svg>